<svg width="246" height="28" viewBox="0 0 246 28" fill="none" xmlns="http://www.w3.org/2000/svg">
<g clip-path="url(#clip0_5447_4803)">
<path d="M0 8.73328H3.50587C4.76239 8.73328 5.78623 9.09006 6.54635 9.78813C7.30647 10.5017 7.67877 11.4014 7.67877 12.5028C7.67877 13.6818 7.29095 14.6126 6.4998 15.2952C5.72417 15.9777 4.73136 16.3345 3.5524 16.3345H2.09421V20.2437H0V8.74878V8.73328ZM2.09421 14.597H3.27317C4.03329 14.597 4.60727 14.4109 4.97956 14.0386C5.35187 13.6664 5.53803 13.1544 5.53803 12.5184C5.53803 11.8823 5.35187 11.4014 4.97956 11.0447C4.60727 10.6879 4.0488 10.5017 3.31971 10.5017H2.09421V14.597Z" fill="#BCBCBC"/>
<path d="M9.37039 13.9304V12.0378C10.0064 11.6345 10.9061 11.4484 12.1006 11.4484C14.3809 11.4484 15.5289 12.5343 15.5289 14.7216V20.2441H13.5433V19.2048C13.1555 19.9493 12.4264 20.3061 11.356 20.3061C10.5649 20.3061 9.92886 20.0734 9.44796 19.5925C8.96707 19.1116 8.73438 18.5066 8.73438 17.7776C8.73438 16.9554 9.02911 16.3193 9.63411 15.854C10.2391 15.3886 11.0923 15.1558 12.2247 15.1558H13.4503V14.6285C13.4503 14.1476 13.3261 13.7908 13.0779 13.5426C12.8297 13.2944 12.4109 13.1703 11.8369 13.1703C10.9372 13.1703 10.115 13.434 9.35488 13.946L9.37039 13.9304ZM13.4657 16.521H12.4419C11.9145 16.521 11.5267 16.6296 11.2474 16.8468C10.9682 17.064 10.8286 17.3432 10.8286 17.6845C10.8286 18.4136 11.2319 18.7704 12.0541 18.7704C12.5039 18.7704 12.8452 18.6308 13.0934 18.367C13.3416 18.1033 13.4657 17.7465 13.4657 17.3121V16.49V16.521Z" fill="#BCBCBC"/>
<path d="M19.9369 20.0736L16.6172 11.5882H18.82L19.7973 14.3494C20.0921 15.1716 20.3403 15.8541 20.5264 16.4126C20.7125 16.971 20.8212 17.3278 20.8677 17.4674L20.9143 17.7001C21.0228 17.2968 21.3796 16.18 21.9847 14.3338L22.8688 11.5726H24.9631L21.9225 19.9805C21.0849 22.2918 19.7973 23.4398 18.0599 23.4398C17.7341 23.4398 17.4549 23.4088 17.2223 23.3622V21.6714C17.3929 21.718 17.5945 21.7334 17.7807 21.7334C18.7891 21.7334 19.5027 21.175 19.9215 20.0425L19.9369 20.0736Z" fill="#BCBCBC"/>
<path d="M28.1649 11.5881V12.9532C28.6459 11.9759 29.4369 11.4795 30.5384 11.4795C31.7639 11.4795 32.5705 12.0224 32.9273 13.1238C33.1445 12.5964 33.4857 12.1931 33.9201 11.9139C34.37 11.6346 34.8664 11.495 35.4248 11.495C36.278 11.495 36.9451 11.7587 37.4104 12.2861C37.8759 12.8136 38.1085 13.5737 38.1085 14.5511V20.2441H36.0919V14.9388C36.0919 13.7753 35.6575 13.2014 34.7888 13.2014C34.3544 13.2014 33.9667 13.3876 33.6409 13.7753C33.2996 14.1632 33.1289 14.7681 33.1289 15.6059V20.2441H31.1123V14.9388C31.1123 13.7753 30.678 13.2014 29.8092 13.2014C29.3749 13.2014 28.9871 13.3876 28.6459 13.7753C28.3045 14.1632 28.1339 14.7681 28.1339 15.6059V20.2441H26.1328V11.5881H28.1339H28.1649Z" fill="#BCBCBC"/>
<path d="M46.6376 17.9948V19.7633C46.0481 20.1356 45.1949 20.3217 44.0935 20.3217C42.7595 20.3217 41.6891 19.9184 40.9135 19.0962C40.1377 18.2741 39.75 17.2192 39.75 15.9161C39.75 14.5354 40.1223 13.4652 40.8513 12.674C41.5804 11.8828 42.4957 11.495 43.5971 11.495C44.6985 11.495 45.5672 11.8363 46.2032 12.5188C46.8548 13.2014 47.1651 14.1942 47.1651 15.4973C47.1651 15.823 47.1185 16.2264 47.0409 16.7228H41.7511C41.8907 17.3433 42.2009 17.8242 42.6508 18.15C43.1163 18.4757 43.6901 18.6464 44.3727 18.6464C45.2569 18.6464 46.0016 18.4137 46.622 17.9638L46.6376 17.9948ZM45.2724 15.2025V14.9388C45.2569 14.3804 45.1019 13.9305 44.8381 13.6048C44.5744 13.2634 44.1711 13.1083 43.6436 13.1083C43.1628 13.1083 42.7595 13.2945 42.4027 13.6513C42.0613 14.0081 41.8287 14.5354 41.7356 15.2181H45.2724V15.2025Z" fill="#BCBCBC"/>
<path d="M50.9932 11.5881V13.0773C51.4742 12.0224 52.3274 11.495 53.5839 11.495C54.4215 11.495 55.0886 11.7587 55.585 12.2861C56.0659 12.8136 56.314 13.5426 56.314 14.5045V20.2597H54.313V14.9388C54.313 14.3649 54.1734 13.946 53.9096 13.6513C53.6459 13.3565 53.2891 13.2169 52.8238 13.2169C52.2963 13.2169 51.862 13.4186 51.5052 13.8374C51.1484 14.2562 50.9778 14.8457 50.9778 15.6214V20.2597H48.9766V11.6036H50.9778L50.9932 11.5881Z" fill="#BCBCBC"/>
<path d="M60.8045 13.1237V17.5294C60.8045 17.8862 60.8977 18.1654 61.0838 18.3515C61.2699 18.5376 61.5337 18.6307 61.8594 18.6307C62.2782 18.6307 62.6661 18.5066 63.0229 18.2739V20.0268C62.635 20.213 62.1386 20.3216 61.5337 20.3216C59.7186 20.3216 58.8034 19.3754 58.8034 17.4828V13.1082H57.5469V11.5725H58.8034V9.49377H60.8045V11.5725H62.8987V13.1082H60.8045V13.1237Z" fill="#BCBCBC"/>
<path d="M69.7121 11.8672V13.6821C69.1536 13.3408 68.471 13.1702 67.6334 13.1702C67.2921 13.1702 67.0284 13.2478 66.8268 13.4029C66.6406 13.558 66.532 13.7441 66.532 13.9924C66.532 14.0855 66.532 14.1631 66.5785 14.2561C66.6096 14.3337 66.6561 14.4112 66.7337 14.4888C66.8112 14.5664 66.8733 14.6284 66.9353 14.6904C66.9973 14.7525 67.0905 14.8145 67.2145 14.8767C67.3386 14.9387 67.4472 15.0007 67.5248 15.0317C67.6178 15.0783 67.7265 15.1403 67.897 15.2024C68.0522 15.2644 68.1764 15.3265 68.2694 15.3731C68.8589 15.6677 69.3242 15.9935 69.6656 16.3659C70.0068 16.7227 70.1774 17.2035 70.1774 17.7775C70.1774 18.5841 69.8982 19.2201 69.3242 19.67C68.7502 20.1199 68.0057 20.3525 67.0594 20.3525C66.0201 20.3525 65.1824 20.182 64.5309 19.8252V17.9481C65.2754 18.46 66.0821 18.7237 66.9353 18.7237C67.3076 18.7237 67.5869 18.6461 67.7885 18.5065C67.9902 18.3669 68.0988 18.1653 68.0988 17.9171C68.0988 17.762 68.0677 17.6379 68.0057 17.5137C67.9437 17.3897 67.8196 17.2811 67.6178 17.1569C67.4317 17.0484 67.2766 16.9553 67.1836 16.9088C67.0749 16.8623 66.8733 16.7692 66.563 16.6296C66.532 16.6296 66.5009 16.614 66.4854 16.5985C66.47 16.5985 66.4389 16.5831 66.4078 16.5675C66.3769 16.5675 66.3458 16.552 66.3304 16.5365C65.1048 15.9625 64.4844 15.1559 64.4844 14.0855C64.4844 13.2943 64.779 12.6583 65.3685 12.2084C65.958 11.7586 66.6872 11.5259 67.5713 11.5259C68.4556 11.5259 69.1381 11.65 69.6965 11.8982L69.7121 11.8672Z" fill="#BCBCBC"/>
<path d="M75.9844 8.73328H79.4902C80.7468 8.73328 81.7706 9.09006 82.5308 9.78813C83.2909 10.5017 83.6632 11.4014 83.6632 12.5028C83.6632 13.6818 83.2754 14.6126 82.4842 15.2952C81.7086 15.9777 80.7158 16.3345 79.5368 16.3345H78.0786V20.2437H75.9844V8.74878V8.73328ZM78.0786 14.597H79.2576C80.0177 14.597 80.5917 14.4109 80.964 14.0386C81.3362 13.6664 81.5225 13.1544 81.5225 12.5184C81.5225 11.8823 81.3362 11.4014 80.964 11.0447C80.5917 10.6879 80.0332 10.5017 79.3041 10.5017H78.0786V14.597Z" fill="#BCBCBC"/>
<path d="M85.3469 13.9304V12.0378C85.9829 11.6345 86.8827 11.4484 88.0771 11.4484C90.3575 11.4484 91.5055 12.5343 91.5055 14.7216V20.2441H89.5197V19.2048C89.132 19.9493 88.4029 20.3061 87.3325 20.3061C86.5413 20.3061 85.9053 20.0734 85.4244 19.5925C84.9436 19.1116 84.7109 18.5066 84.7109 17.7776C84.7109 16.9554 85.0056 16.3193 85.6107 15.854C86.2156 15.3886 87.0688 15.1558 88.2012 15.1558H89.4267V14.6285C89.4267 14.1476 89.3027 13.7908 89.0544 13.5426C88.8063 13.2944 88.3873 13.1703 87.8135 13.1703C86.9137 13.1703 86.0915 13.434 85.3313 13.946L85.3469 13.9304ZM89.4423 16.521H88.4184C87.8909 16.521 87.5032 16.6296 87.2239 16.8468C86.9447 17.064 86.8051 17.3432 86.8051 17.6845C86.8051 18.4136 87.2084 18.7704 88.0305 18.7704C88.4804 18.7704 88.8217 18.6308 89.0699 18.367C89.3181 18.1033 89.4423 17.7465 89.4423 17.3121V16.49V16.521Z" fill="#BCBCBC"/>
<path d="M95.5556 11.5879V13.1237C95.9434 12.0533 96.657 11.5259 97.6809 11.5259C97.9136 11.5259 98.0997 11.5414 98.2393 11.5724V13.558C97.9756 13.4495 97.6964 13.3873 97.3861 13.3873C96.8432 13.3873 96.3933 13.6201 96.0521 14.07C95.7108 14.5199 95.5401 15.0937 95.5401 15.7764V20.244H93.5234V11.5879H95.5401H95.5556Z" fill="#BCBCBC"/>
<path d="M101.867 13.1237V17.5294C101.867 17.8862 101.96 18.1654 102.146 18.3515C102.332 18.5376 102.596 18.6307 102.922 18.6307C103.341 18.6307 103.729 18.5066 104.085 18.2739V20.0268C103.698 20.213 103.201 20.3216 102.596 20.3216C100.781 20.3216 99.8659 19.3754 99.8659 17.4828V13.1082H98.6094V11.5725H99.8659V9.49377H101.867V11.5725H103.961V13.1082H101.867V13.1237Z" fill="#BCBCBC"/>
<path d="M107.735 11.5881V13.0773C108.216 12.0224 109.069 11.495 110.326 11.495C111.164 11.495 111.831 11.7587 112.327 12.2861C112.808 12.8136 113.056 13.5426 113.056 14.5045V20.2597H111.055V14.9388C111.055 14.3649 110.915 13.946 110.652 13.6513C110.388 13.3565 110.031 13.2169 109.566 13.2169C109.038 13.2169 108.604 13.4186 108.247 13.8374C107.89 14.2562 107.72 14.8457 107.72 15.6214V20.2597H105.719V11.6036H107.72L107.735 11.5881Z" fill="#BCBCBC"/>
<path d="M121.559 17.9948V19.7633C120.97 20.1356 120.117 20.3217 119.015 20.3217C117.681 20.3217 116.611 19.9184 115.835 19.0962C115.06 18.2741 114.672 17.2192 114.672 15.9161C114.672 14.5354 115.044 13.4652 115.773 12.674C116.502 11.8828 117.418 11.495 118.519 11.495C119.62 11.495 120.489 11.8363 121.125 12.5188C121.777 13.2014 122.087 14.1942 122.087 15.4973C122.087 15.823 122.04 16.2264 121.963 16.7228H116.673C116.813 17.3433 117.123 17.8242 117.573 18.15C118.038 18.4757 118.612 18.6464 119.295 18.6464C120.179 18.6464 120.923 18.4137 121.544 17.9638L121.559 17.9948ZM120.194 15.2025V14.9388C120.179 14.3804 120.024 13.9305 119.76 13.6048C119.496 13.2634 119.093 13.1083 118.565 13.1083C118.085 13.1083 117.681 13.2945 117.325 13.6513C116.983 14.0081 116.751 14.5354 116.657 15.2181H120.194V15.2025Z" fill="#BCBCBC"/>
<path d="M125.915 11.5879V13.1237C126.303 12.0533 127.016 11.5259 128.04 11.5259C128.273 11.5259 128.459 11.5414 128.599 11.5724V13.558C128.335 13.4495 128.056 13.3873 127.745 13.3873C127.203 13.3873 126.753 13.6201 126.411 14.07C126.07 14.5199 125.899 15.0937 125.899 15.7764V20.244H123.883V11.5879H125.899H125.915Z" fill="#BCBCBC"/>
<path d="M179.698 12.0071H181.403C182.303 12.0847 183.203 11.7899 183.886 11.2004C184.164 10.9212 184.382 10.5799 184.522 10.2076C184.662 9.83531 184.723 9.43199 184.707 9.04417C184.723 8.65635 184.662 8.26853 184.522 7.89623C184.382 7.53944 184.164 7.19816 183.886 6.93444C183.203 6.37599 182.35 6.09676 181.48 6.15881H179.698V12.0071ZM176.656 3.66127H181.744C183.343 3.58371 184.924 4.12665 186.15 5.166C186.694 5.64689 187.112 6.25189 187.407 6.91893C187.686 7.58597 187.826 8.31507 187.81 9.04417C187.842 9.78877 187.702 10.5489 187.407 11.2315C187.112 11.914 186.662 12.5345 186.104 13.0309C184.91 14.0392 183.39 14.5667 181.822 14.5046H179.698V20.0736H176.656V3.66127ZM196.187 14.7683H194.698C194.078 14.7218 193.472 14.8924 192.96 15.2492C192.774 15.3888 192.619 15.575 192.511 15.7767C192.402 15.9939 192.355 16.211 192.355 16.4592C192.355 17.4986 192.944 18.0104 194.139 18.0104C194.419 18.026 194.698 17.9795 194.946 17.8864C195.21 17.7934 195.443 17.6382 195.644 17.4366C195.83 17.2348 195.97 17.0022 196.063 16.7384C196.156 16.4747 196.203 16.211 196.187 15.9318V14.7683ZM190.262 11.0608V8.36161C191.471 7.72559 192.836 7.43085 194.216 7.50841C197.522 7.50841 199.18 9.05968 199.18 12.1777V20.0736H196.311V18.5844C195.752 19.6394 194.682 20.1667 193.131 20.1667C192.619 20.1978 192.123 20.1202 191.642 19.934C191.16 19.7479 190.727 19.4842 190.37 19.143C190.028 18.8016 189.764 18.3983 189.594 17.9639C189.423 17.514 189.331 17.0487 189.346 16.5678C189.331 16.0404 189.439 15.513 189.656 15.032C189.888 14.5511 190.23 14.1323 190.648 13.822C191.766 13.093 193.084 12.7362 194.403 12.8293H196.187V12.0847C196.203 11.8054 196.171 11.5262 196.079 11.247C195.986 10.9833 195.846 10.7351 195.659 10.5179C195.147 10.1145 194.496 9.91288 193.844 9.97494C192.558 9.97494 191.316 10.3472 190.246 11.0763M205.572 19.8255L200.748 7.72559H203.959L205.386 11.6658C205.82 12.8293 206.162 13.822 206.44 14.6132C206.704 15.4043 206.875 15.9163 206.938 16.1179L206.999 16.4592C207.155 15.8852 207.682 14.2875 208.535 11.6658L209.807 7.72559H212.847L208.442 19.7324C207.216 23.0211 205.355 24.681 202.842 24.681C202.439 24.681 202.035 24.6499 201.632 24.5568V22.1523C201.895 22.2144 202.175 22.2455 202.454 22.2455C203.912 22.2455 204.951 21.4388 205.572 19.841M220.572 17.7312C220.976 17.7312 221.379 17.6536 221.752 17.4831C222.124 17.3124 222.45 17.0487 222.698 16.723C223.287 15.9007 223.582 14.8924 223.52 13.8842C223.582 12.8758 223.287 11.8675 222.698 11.0453C222.45 10.7195 222.139 10.4713 221.783 10.2852C221.426 10.1145 221.023 10.0215 220.619 10.0215C220.216 10.0215 219.812 10.099 219.44 10.2697C219.068 10.4403 218.727 10.673 218.447 10.9677C217.78 11.7589 217.455 12.7672 217.532 13.7911C217.471 14.8304 217.78 15.8698 218.416 16.6919C218.68 17.0176 219.006 17.2659 219.379 17.452C219.751 17.6382 220.154 17.7158 220.558 17.7158M217.532 7.72559V9.61814C217.92 8.9666 218.463 8.42367 219.115 8.06687C219.766 7.71008 220.511 7.52392 221.271 7.55495C222 7.52392 222.714 7.66355 223.366 7.97379C224.016 8.26853 224.606 8.7184 225.056 9.29238C226.048 10.5954 226.546 12.2087 226.468 13.8376C226.53 15.4819 226.034 17.1107 225.056 18.4294C224.606 19.0188 224.032 19.4842 223.366 19.8099C222.698 20.1202 221.97 20.2754 221.24 20.2443C220.495 20.2754 219.766 20.1047 219.099 19.7479C218.447 19.3911 217.904 18.8636 217.516 18.2122V24.7119H214.631V7.72559H217.532ZM229.074 2.85461H231.959V20.0582H229.074V2.85461ZM242.586 12.8913V12.519C242.586 11.8209 242.368 11.1539 241.95 10.6109C241.732 10.3627 241.468 10.1766 241.174 10.0525C240.879 9.92839 240.554 9.88185 240.227 9.89736C239.886 9.89736 239.56 9.95942 239.25 10.099C238.94 10.2386 238.66 10.4248 238.428 10.673C237.87 11.2935 237.528 12.0691 237.451 12.9068H242.586V12.8913ZM244.555 16.847V19.3756C243.423 19.9806 242.151 20.2598 240.863 20.1823C240.01 20.2288 239.172 20.0892 238.382 19.7944C237.59 19.4996 236.862 19.0343 236.256 18.4294C235.682 17.8243 235.248 17.1107 234.954 16.3351C234.659 15.5595 234.534 14.7218 234.566 13.8996C234.472 12.2087 235.046 10.5489 236.163 9.27685C236.675 8.73392 237.295 8.29956 237.978 8.00481C238.66 7.71008 239.406 7.57047 240.15 7.58597C240.848 7.55495 241.546 7.66355 242.198 7.91175C242.85 8.15995 243.439 8.54776 243.935 9.04417C244.866 10.0215 245.331 11.4331 245.331 13.3101C245.331 13.8996 245.27 14.4891 245.16 15.0631H237.498C237.668 15.8852 238.134 16.6143 238.816 17.1107C239.56 17.6071 240.43 17.8554 241.314 17.8088C242.476 17.8554 243.61 17.4986 244.571 16.8315L244.555 16.847Z" fill="#BCBCBC"/>
<path d="M167.136 15.6988C165.151 17.3741 162.622 18.2584 160.047 18.1653H156.526V27.7056H151.484V19.546C151.702 19.4529 151.919 19.3597 152.151 19.2512C153.098 18.7859 153.966 18.1964 154.758 17.4983C155.859 16.5209 156.743 15.3265 157.348 13.9924H159.364C161.211 13.9924 162.575 13.5425 163.475 12.6428C163.94 12.1619 164.298 11.6035 164.53 10.9675C164.763 10.3469 164.871 9.67991 164.84 9.01285C164.871 8.36132 164.779 7.70979 164.53 7.1048C164.298 6.4998 163.94 5.94135 163.475 5.49148C162.359 4.56072 160.916 4.11085 159.474 4.20393H157.363C156.774 2.90087 155.92 1.73741 154.882 0.775633C154.587 0.496405 154.276 0.248203 153.951 0H159.923C162.963 0 165.399 0.837684 167.214 2.52856C168.114 3.33523 168.812 4.34355 169.292 5.46045C169.774 6.57737 169.991 7.78736 169.959 8.99735C170.022 10.2539 169.79 11.4949 169.308 12.6428C168.827 13.7908 168.083 14.8145 167.152 15.6523" fill="#BCBCBC"/>
<path d="M153.652 2.57227C153.109 2.06035 152.489 1.64151 151.837 1.28471C151.092 0.896897 150.301 0.586644 149.48 0.400492C148.456 0.167803 147.4 0.0437012 146.345 0.0437012H137.906V27.7183H142.948V18.178H146.469C147.478 18.178 148.502 18.0695 149.48 17.8212C150.301 17.6196 151.092 17.3093 151.837 16.906C152.457 16.5647 153.032 16.1613 153.574 15.696C154.505 14.8739 155.25 13.85 155.73 12.6865C156.212 11.5386 156.444 10.2821 156.382 9.02553C156.413 7.81555 156.196 6.60556 155.716 5.48865C155.25 4.37173 154.536 3.36341 153.637 2.55675M149.913 12.671C149.774 12.7951 149.634 12.9192 149.494 13.0278C148.393 13.7413 147.105 14.0827 145.802 14.0051H142.964V4.23212H145.926C147.184 4.17007 148.44 4.49584 149.494 5.16288C149.649 5.27147 149.789 5.38005 149.913 5.51967C150.378 5.96953 150.736 6.528 150.968 7.13299C151.201 7.73799 151.309 8.38952 151.278 9.04105C151.309 9.70809 151.201 10.3751 150.968 10.9956C150.736 11.6161 150.378 12.1901 149.913 12.671Z" fill="#BCBCBC"/>
</g>
<defs>
<clipPath id="clip0_5447_4803">
<rect width="245.333" height="28" fill="white"/>
</clipPath>
</defs>
</svg>
