<svg width="59" height="57" viewBox="0 0 59 57" fill="none" xmlns="http://www.w3.org/2000/svg">
<path d="M49.4952 17.1791C47.5119 14.9858 44.1985 13.8891 39.3919 13.8891H38.8319V13.7958C38.8319 9.8758 38.8319 5.02246 30.0585 5.02246H26.5119C17.7385 5.02246 17.7385 9.89913 17.7385 13.7958V13.9125H17.1785C12.3485 13.9125 9.05854 15.0091 7.0752 17.2025C4.7652 19.7691 4.8352 23.2225 5.06854 25.5791L5.09187 25.7425L5.3252 28.1925C5.34854 28.2158 5.3952 28.2625 5.44187 28.2858C6.21187 28.7991 7.0052 29.3125 7.8452 29.7791C8.17187 29.9891 8.52187 30.1758 8.87187 30.3625C12.8619 32.5558 17.2485 34.0258 21.7052 34.7491C21.9152 36.9425 22.8719 39.5091 27.9819 39.5091C33.0919 39.5091 34.0952 36.9658 34.2585 34.7025C39.0185 33.9325 43.6152 32.2758 47.7685 29.8491C47.9085 29.7791 48.0019 29.7091 48.1185 29.6391C49.1919 29.0325 50.1952 28.3791 51.1752 27.6558C51.2219 27.6325 51.2685 27.5858 51.2919 27.5391L51.3852 26.6991L51.5019 25.6025C51.5252 25.4625 51.5252 25.3458 51.5485 25.1825C51.7352 22.8258 51.6885 19.6058 49.4952 17.1791ZM30.8285 33.1625C30.8285 35.6358 30.8285 36.0091 27.9585 36.0091C25.0885 36.0091 25.0885 35.5658 25.0885 33.1858V30.2458H30.8285V33.1625ZM21.0752 13.8891V13.7958C21.0752 9.82913 21.0752 8.35913 26.5119 8.35913H30.0585C35.4952 8.35913 35.4952 9.85246 35.4952 13.7958V13.9125H21.0752V13.8891Z" fill="#25BBBB"/>
<path opacity="0.4" d="M48.1185 29.5927C48.0019 29.6627 47.8852 29.7327 47.7685 29.8027C43.6152 32.2293 39.0185 33.8627 34.2585 34.656C34.0719 36.896 33.0919 39.4627 27.9819 39.4627C22.8719 39.4627 21.8919 36.9193 21.7052 34.7027C17.2485 34.0027 12.8619 32.5327 8.87186 30.316C8.52186 30.1293 8.17186 29.9427 7.8452 29.7327C7.0052 29.266 6.21186 28.7527 5.44186 28.2393C5.3952 28.216 5.34853 28.1693 5.3252 28.146L6.74853 43.336C7.23853 47.9793 9.15186 52.7627 19.4185 52.7627H37.1985C47.4652 52.7627 49.3785 47.9793 49.8685 43.3127L51.3385 27.4927C51.3152 27.5393 51.2685 27.586 51.2219 27.6093C50.2185 28.3327 49.1919 29.0093 48.1185 29.5927Z" fill="#25BBBB"/>
<rect x="44.2188" y="6.35938" width="12.3389" height="13.1615" fill="white"/>
<path d="M46.6207 4.71414L53.6745 4.71415C56.7215 4.71415 58.5449 6.53756 58.5449 9.58459L58.5449 16.6383C58.5449 19.6854 56.7215 21.5088 53.6745 21.5088L46.6207 21.5088C43.5737 21.5088 41.7503 19.6854 41.7503 16.6383L41.7503 9.58459C41.7503 6.53756 43.5737 4.71414 46.6207 4.71414ZM46.0929 12.6556C46.3808 12.9435 46.7647 13.0875 47.1486 13.0875C47.5324 13.0875 47.9163 12.9435 48.2042 12.6556L48.6361 12.2238L48.6361 17.598C48.6361 18.4378 49.3079 19.1096 50.1476 19.1096C50.9873 19.1096 51.6591 18.4378 51.6591 17.598L51.6591 12.2238L52.091 12.6556C52.6668 13.2314 53.6265 13.2314 54.2023 12.6556C54.7781 12.0798 54.7781 11.1201 54.2023 10.5443L51.2033 7.54524C51.0833 7.42528 50.9154 7.32931 50.7474 7.25733C50.6994 7.23334 50.6514 7.23334 50.6035 7.20935C50.4835 7.16136 50.3635 7.13737 50.2196 7.13737C50.1716 7.13737 50.1236 7.13737 50.0756 7.13737C49.9077 7.13737 49.7637 7.16136 49.5958 7.23334C49.5718 7.23334 49.5718 7.23334 49.5478 7.23334C49.3798 7.30532 49.2359 7.40129 49.1159 7.52125C49.0919 7.54524 49.0919 7.54524 49.0679 7.54524L46.0689 10.5443C45.4931 11.1201 45.4931 12.0798 46.0929 12.6556Z" fill="#454F5D"/>
</svg>
