<svg width="240" height="164" viewBox="0 0 240 164" fill="none" xmlns="http://www.w3.org/2000/svg">
<path d="M190 122L162 105H134" stroke="#DFF5F0" stroke-width="1.89432"/>
<path d="M16.9716 36.4847C24.0216 27.8748 32.8991 20.9417 42.9606 16.1879C53.0221 11.4342 64.0153 8.97889 75.1432 9.00014L75.0474 59.1903C71.3663 59.1832 67.7298 59.9954 64.4015 61.568C61.0732 63.1405 58.1365 65.434 55.8044 68.2821L16.9716 36.4847Z" fill="#4FE3C2"/>
<path d="M75 9C92.025 9 108.543 14.7924 121.84 25.4251C135.136 36.0578 144.42 50.898 148.164 67.5062C151.908 84.1144 149.89 101.502 142.442 116.812C134.994 132.121 122.558 144.441 107.18 151.745C91.8018 159.05 74.3958 160.906 57.8233 157.007C41.2508 153.107 26.498 143.686 15.99 130.291C5.48203 116.895 -0.155804 100.324 0.00327063 83.2992C0.162345 66.275 6.10886 49.8114 16.8653 36.6148L55.8374 68.3807C52.2918 72.7306 50.3317 78.1574 50.2792 83.769C50.2268 89.3806 52.0852 94.8431 55.5489 99.2585C59.0125 103.674 63.8754 106.78 69.3381 108.065C74.8008 109.35 80.5383 108.738 85.6073 106.331C90.6764 103.923 94.7753 99.8618 97.2305 94.8155C99.6856 89.7692 100.351 84.0377 99.1166 78.5632C97.8825 73.0888 94.8225 68.1971 90.4396 64.6923C86.0567 61.1875 80.6119 59.2782 75 59.2782L75 9Z" fill="#DFF5F0"/>
<path d="M57.5095 139.456C61.2775 139.456 63.8935 137.44 63.8935 134.104C63.8935 132.064 62.9815 130.48 60.8695 129.64C62.4295 128.848 63.3175 127.408 63.3175 125.68C63.3175 122.728 60.8935 120.736 57.5095 120.736C54.1735 120.736 51.7735 122.728 51.7735 125.68C51.7735 127.408 52.6375 128.8 54.1735 129.64C52.0615 130.48 51.1495 132.064 51.1495 134.104C51.1495 137.44 53.7655 139.456 57.5095 139.456ZM57.5095 128.464C55.6615 128.464 54.9415 126.976 54.9415 125.728C54.9415 124.36 55.7815 123.28 57.5095 123.28C59.2375 123.28 60.1255 124.36 60.1255 125.728C60.1255 126.976 59.3815 128.464 57.5095 128.464ZM57.5095 136.816C55.5895 136.816 54.4855 135.712 54.4855 134.056C54.4855 132.136 55.6615 131.056 57.5095 131.056C59.3575 131.056 60.6055 132.136 60.6055 134.056C60.6055 135.712 59.4295 136.816 57.5095 136.816ZM78.007 130.096C78.007 123.712 75.151 120.832 71.311 120.832C67.567 120.832 64.687 123.712 64.687 130.096C64.687 136.432 67.567 139.336 71.311 139.336C75.151 139.336 78.007 136.432 78.007 130.096ZM74.647 130.096C74.647 135.184 73.063 136.552 71.311 136.552C69.655 136.552 68.047 135.184 68.047 130.096C68.047 124.984 69.655 123.592 71.311 123.592C73.063 123.592 74.647 124.984 74.647 130.096ZM79.0166 125.344V125.56C79.0166 128.344 80.7926 129.808 83.3126 129.808C85.8086 129.808 87.7046 128.296 87.7046 125.488V125.176C87.7046 122.416 85.8086 121 83.3126 121C80.7926 121 79.0166 122.56 79.0166 125.344ZM95.9126 121.12H93.0806L81.4406 139H84.3926L95.9126 121.12ZM85.0406 125.224L85.0166 125.536C85.0166 127.264 84.5366 127.912 83.3126 127.912C82.0886 127.912 81.5606 127.264 81.5606 125.536L81.5846 125.128C81.5846 123.496 82.2086 122.848 83.3846 122.848C84.4646 122.848 85.0406 123.496 85.0406 125.224ZM90.1526 134.2V134.416C90.1526 137.2 91.9046 138.64 94.4246 138.64C96.8966 138.64 98.7926 137.128 98.7926 134.344V134.032C98.7926 131.272 96.8966 129.88 94.4246 129.88C91.9046 129.88 90.1526 131.392 90.1526 134.2ZM96.1526 134.08L96.1286 134.392C96.1286 136.12 95.6486 136.744 94.4246 136.744C93.2006 136.744 92.6726 136.12 92.6726 134.392L92.6966 133.984C92.6966 132.352 93.3206 131.728 94.4966 131.728C95.5766 131.728 96.1526 132.352 96.1526 134.08Z" fill="#4FE3C1"/>
<path d="M43.6596 33.36C41.7416 33.36 40.3556 34.368 40.0196 36.51L41.8536 36.818C41.8676 36.538 41.8956 36.328 41.9656 36.118C42.1896 35.502 42.7496 34.97 43.5336 34.97C44.4436 34.97 45.0176 35.474 45.0176 36.44C45.0176 37.518 44.3596 38.358 43.2956 39.422L39.7816 42.88V44H47.0756V42.236H43.7156C43.3936 42.236 43.0576 42.25 42.6796 42.348L44.8496 40.164C45.8856 39.086 46.9216 37.868 46.9636 36.398C46.9636 34.606 45.6056 33.36 43.6596 33.36ZM55.2541 38.806C55.2541 35.082 53.5881 33.402 51.3481 33.402C49.1641 33.402 47.4841 35.082 47.4841 38.806C47.4841 42.502 49.1641 44.196 51.3481 44.196C53.5881 44.196 55.2541 42.502 55.2541 38.806ZM53.2941 38.806C53.2941 41.774 52.3701 42.572 51.3481 42.572C50.3821 42.572 49.4441 41.774 49.4441 38.806C49.4441 35.824 50.3821 35.012 51.3481 35.012C52.3701 35.012 53.2941 35.824 53.2941 38.806ZM55.6766 36.034V36.16C55.6766 37.784 56.7126 38.638 58.1826 38.638C59.6386 38.638 60.7446 37.756 60.7446 36.118V35.936C60.7446 34.326 59.6386 33.5 58.1826 33.5C56.7126 33.5 55.6766 34.41 55.6766 36.034ZM65.5326 33.57H63.8806L57.0906 44H58.8126L65.5326 33.57ZM59.1906 35.964L59.1766 36.146C59.1766 37.154 58.8966 37.532 58.1826 37.532C57.4686 37.532 57.1606 37.154 57.1606 36.146L57.1746 35.908C57.1746 34.956 57.5386 34.578 58.2246 34.578C58.8546 34.578 59.1906 34.956 59.1906 35.964ZM62.1726 41.2V41.326C62.1726 42.95 63.1946 43.79 64.6646 43.79C66.1066 43.79 67.2126 42.908 67.2126 41.284V41.102C67.2126 39.492 66.1066 38.68 64.6646 38.68C63.1946 38.68 62.1726 39.562 62.1726 41.2ZM65.6726 41.13L65.6586 41.312C65.6586 42.32 65.3786 42.684 64.6646 42.684C63.9506 42.684 63.6426 42.32 63.6426 41.312L63.6566 41.074C63.6566 40.122 64.0206 39.758 64.7066 39.758C65.3366 39.758 65.6726 40.122 65.6726 41.13Z" fill="white"/>
<path d="M151.401 12.727V11.336H146.825V9.139H150.218V2.886H148.528V4.745H143.406V2.886H141.703V9.139H145.109V11.336H140.559V12.727H151.401ZM148.528 7.774H143.406V6.097H148.528V7.774ZM152.512 5.876L153.084 7.215C155.437 7.007 156.815 6.175 157.452 5.031C158.076 6.175 159.454 7.007 161.807 7.215L162.405 5.876C160.117 5.668 158.96 4.901 158.687 4.069H161.885V2.704H153.032V4.069H156.217C155.944 4.901 154.774 5.668 152.512 5.876ZM162.86 9.022V7.67H152.044V9.022H162.86ZM157.426 9.672C154.839 9.672 153.279 10.491 153.279 11.895C153.279 13.312 154.839 14.131 157.426 14.131C160.013 14.131 161.586 13.312 161.586 11.895C161.586 10.491 160.013 9.672 157.426 9.672ZM157.426 12.805C155.814 12.805 155.008 12.506 155.008 11.895C155.008 11.271 155.801 10.998 157.426 10.998C159.051 10.998 159.844 11.271 159.844 11.895C159.844 12.506 159.038 12.805 157.426 12.805ZM174.372 8.359V6.994H172.825C173.098 5.603 173.098 4.615 173.098 3.64V2.678H164.869V4.043H171.408C171.408 4.875 171.369 5.798 171.122 6.994H163.53V8.359H174.372ZM173.046 9.607H164.804V13.975H173.046V9.607ZM171.369 12.636H166.494V10.946H171.369V12.636ZM179.136 1.885H177.862L174.638 14.716H175.912L179.136 1.885ZM189.852 14.105V2.132H188.227V14.105H189.852ZM187.447 2.34H185.848V4.784H184.47C184.015 3.627 183.274 2.99 182.286 2.99C180.687 2.99 179.686 4.628 179.686 7.332C179.686 10.049 180.687 11.687 182.286 11.687C183.274 11.687 184.028 11.024 184.483 9.867H185.848V13.572H187.447V2.34ZM182.286 10.075C181.61 10.075 181.22 9.165 181.22 7.332C181.22 5.499 181.61 4.602 182.286 4.602C182.949 4.602 183.339 5.499 183.339 7.332C183.339 9.165 182.949 10.075 182.286 10.075ZM185.848 6.162V8.476H184.808C184.847 8.125 184.873 7.735 184.873 7.332C184.873 6.916 184.847 6.526 184.795 6.162H185.848ZM200.999 14.118V2.145H199.283V14.118H200.999ZM195.734 5.876V5.46H198.178V4.095H195.734V2.431H194.018V4.095H191.522V5.46H194.018V5.876C194.018 7.67 193.082 9.75 191.119 10.608L192.042 11.921C193.407 11.31 194.369 10.114 194.902 8.645C195.435 10.01 196.384 11.154 197.736 11.713L198.646 10.4C196.683 9.568 195.734 7.592 195.734 5.876ZM213.394 8.359V6.994H211.847C212.12 5.603 212.12 4.615 212.12 3.64V2.678H203.891V4.043H210.43C210.43 4.875 210.391 5.798 210.144 6.994H202.552V8.359H213.394ZM212.068 9.607H203.826V13.975H212.068V9.607ZM210.391 12.636H205.516V10.946H210.391V12.636ZM222.893 6.097H224.804V8.476H226.52V2.145H224.804V4.706H222.88C222.568 3.419 221.333 2.587 219.812 2.587C218.018 2.587 216.666 3.77 216.666 5.408C216.666 7.072 218.018 8.242 219.812 8.242C221.32 8.242 222.581 7.384 222.893 6.097ZM218.304 5.408C218.304 4.524 218.928 4.004 219.812 4.004C220.696 4.004 221.333 4.524 221.333 5.408C221.333 6.305 220.696 6.825 219.812 6.825C218.928 6.825 218.304 6.305 218.304 5.408ZM225.74 9.958V9.061H224.05V9.958C224.05 11.05 223.504 12.129 222.191 12.753V9.165H220.618V10.335H219.409V9.165H217.823V13.975H222.191V13.078L222.867 14.105C223.855 13.728 224.466 13.065 224.869 12.233C225.272 13.065 225.922 13.741 226.923 14.105L227.768 12.831C226.299 12.311 225.74 11.206 225.74 9.958ZM219.409 11.57H220.618V12.701H219.409V11.57ZM229.334 6.747H237.641V5.382H231.05V2.574H229.334V6.747ZM238.837 9.347V7.969H227.995V9.347H238.837ZM237.706 12.493H230.946V10.296H229.217V13.871H237.706V12.493ZM150.478 32.144V20.132H148.762V32.144H150.478ZM142.847 23.993V21.094H141.144V29.349H147.046V21.094H145.343V23.993H142.847ZM145.343 27.984H142.847V25.332H145.343V27.984ZM163.055 24.344V22.927H161.469V20.158H159.753V27.23H161.469V24.344H163.055ZM158.206 26.775L159.103 25.449C157.218 24.851 156.412 23.46 156.412 22.017V20.795H154.67V21.874C154.67 23.499 153.877 25.098 151.862 25.761L152.759 27.113C154.124 26.645 155.047 25.735 155.567 24.539C156.074 25.579 156.945 26.359 158.206 26.775ZM157.556 27.503C155.047 27.503 153.5 28.361 153.5 29.804C153.5 31.26 155.047 32.118 157.556 32.118C160.052 32.118 161.599 31.26 161.599 29.804C161.599 28.361 160.052 27.503 157.556 27.503ZM157.556 30.792C155.983 30.792 155.203 30.467 155.203 29.804C155.203 29.154 155.983 28.829 157.556 28.829C159.077 28.829 159.896 29.141 159.896 29.804C159.896 30.48 159.077 30.792 157.556 30.792ZM164.05 24.734L164.674 26.073C166.767 25.774 168.223 24.916 168.951 23.668C169.679 24.916 171.135 25.774 173.228 26.073L173.839 24.734C171.395 24.422 170.147 23.278 169.978 22.121H173.371V20.756H164.492V22.121H167.937C167.768 23.278 166.507 24.422 164.05 24.734ZM169.77 28.127H174.359V26.762H163.543V28.127H168.054V32.144H169.77V28.127ZM186.86 26.177H188.602V24.747H186.86V20.145H185.144V32.118H186.86V26.177ZM181.894 22.81V21.068H180.165V22.81C180.165 25.033 179.255 27.334 177.24 28.27L178.267 29.661C179.619 28.998 180.516 27.737 181.036 26.216C181.543 27.685 182.375 28.803 183.623 29.44L184.663 28.088C182.739 27.152 181.894 24.968 181.894 22.81ZM190.22 25.566H198.514V20.73H190.22V25.566ZM191.91 22.082H196.837V24.214H191.91V22.082ZM195.212 28.205H199.814V26.84H188.972V28.205H193.496V32.118H195.212V28.205ZM208.674 26.19H210.39V20.158H208.674V26.19ZM206.984 26.047L207.803 24.708C205.866 24.149 205.008 22.732 205.008 21.328V20.431H203.266V21.328C203.266 22.784 202.382 24.279 200.406 24.903L201.238 26.242C202.642 25.813 203.604 24.916 204.163 23.772C204.696 24.812 205.619 25.644 206.984 26.047ZM210.702 32.027V30.701H204.137V29.96H210.403V26.723H202.421V28.036H208.7V28.738H202.434V32.027H210.702Z" fill="#35C7A5"/>
<path d="M215.951 14.95H239.396V15.6H215.951V14.95Z" fill="#35C7A5"/>
<path d="M151.401 140.727V139.336H146.825V137.139H150.218V130.886H148.528V132.745H143.406V130.886H141.703V137.139H145.109V139.336H140.559V140.727H151.401ZM148.528 135.774H143.406V134.097H148.528V135.774ZM152.512 133.876L153.084 135.215C155.437 135.007 156.815 134.175 157.452 133.031C158.076 134.175 159.454 135.007 161.807 135.215L162.405 133.876C160.117 133.668 158.96 132.901 158.687 132.069H161.885V130.704H153.032V132.069H156.217C155.944 132.901 154.774 133.668 152.512 133.876ZM162.86 137.022V135.67H152.044V137.022H162.86ZM157.426 137.672C154.839 137.672 153.279 138.491 153.279 139.895C153.279 141.312 154.839 142.131 157.426 142.131C160.013 142.131 161.586 141.312 161.586 139.895C161.586 138.491 160.013 137.672 157.426 137.672ZM157.426 140.805C155.814 140.805 155.008 140.506 155.008 139.895C155.008 139.271 155.801 138.998 157.426 138.998C159.051 138.998 159.844 139.271 159.844 139.895C159.844 140.506 159.038 140.805 157.426 140.805ZM174.372 136.359V134.994H172.825C173.098 133.603 173.098 132.615 173.098 131.64V130.678H164.869V132.043H171.408C171.408 132.875 171.369 133.798 171.122 134.994H163.53V136.359H174.372ZM173.046 137.607H164.804V141.975H173.046V137.607ZM171.369 140.636H166.494V138.946H171.369V140.636ZM179.136 129.885H177.862L174.638 142.716H175.912L179.136 129.885ZM189.852 142.105V130.132H188.227V142.105H189.852ZM187.447 130.34H185.848V132.784H184.47C184.015 131.627 183.274 130.99 182.286 130.99C180.687 130.99 179.686 132.628 179.686 135.332C179.686 138.049 180.687 139.687 182.286 139.687C183.274 139.687 184.028 139.024 184.483 137.867H185.848V141.572H187.447V130.34ZM182.286 138.075C181.61 138.075 181.22 137.165 181.22 135.332C181.22 133.499 181.61 132.602 182.286 132.602C182.949 132.602 183.339 133.499 183.339 135.332C183.339 137.165 182.949 138.075 182.286 138.075ZM185.848 134.162V136.476H184.808C184.847 136.125 184.873 135.735 184.873 135.332C184.873 134.916 184.847 134.526 184.795 134.162H185.848ZM200.999 142.118V130.145H199.283V142.118H200.999ZM195.734 133.876V133.46H198.178V132.095H195.734V130.431H194.018V132.095H191.522V133.46H194.018V133.876C194.018 135.67 193.082 137.75 191.119 138.608L192.042 139.921C193.407 139.31 194.369 138.114 194.902 136.645C195.435 138.01 196.384 139.154 197.736 139.713L198.646 138.4C196.683 137.568 195.734 135.592 195.734 133.876ZM213.394 136.359V134.994H211.847C212.12 133.603 212.12 132.615 212.12 131.64V130.678H203.891V132.043H210.43C210.43 132.875 210.391 133.798 210.144 134.994H202.552V136.359H213.394ZM212.068 137.607H203.826V141.975H212.068V137.607ZM210.391 140.636H205.516V138.946H210.391V140.636ZM224.726 136.918H226.455V130.145H224.726V136.918ZM219.929 136.502C221.801 136.502 223.192 135.306 223.192 133.629C223.192 131.952 221.801 130.756 219.929 130.756C218.083 130.756 216.679 131.952 216.679 133.629C216.679 135.306 218.083 136.502 219.929 136.502ZM219.929 132.186C220.865 132.186 221.515 132.732 221.515 133.629C221.515 134.526 220.865 135.072 219.929 135.072C218.993 135.072 218.356 134.526 218.356 133.629C218.356 132.732 218.993 132.186 219.929 132.186ZM225.246 137.815V137.412H223.556V137.815C223.556 138.699 223.179 139.687 222.191 140.415C221.242 139.752 220.865 138.764 220.865 137.815V137.412H219.201V137.815C219.201 138.959 218.564 140.168 216.965 140.688L217.81 141.936C218.902 141.533 219.617 140.857 220.033 139.973C220.436 140.909 221.112 141.663 222.204 142.066C223.296 141.637 223.972 140.87 224.375 139.934C224.778 140.87 225.493 141.559 226.637 141.936L227.482 140.688C225.883 140.207 225.246 139.05 225.246 137.815ZM229.334 134.747H237.641V133.382H231.05V130.574H229.334V134.747ZM238.837 137.347V135.969H227.995V137.347H238.837ZM237.706 140.493H230.946V138.296H229.217V141.871H237.706V140.493ZM150.478 160.144V148.132H148.762V160.144H150.478ZM142.847 151.993V149.094H141.144V157.349H147.046V149.094H145.343V151.993H142.847ZM145.343 155.984H142.847V153.332H145.343V155.984ZM163.055 152.344V150.927H161.469V148.158H159.753V155.23H161.469V152.344H163.055ZM158.206 154.775L159.103 153.449C157.218 152.851 156.412 151.46 156.412 150.017V148.795H154.67V149.874C154.67 151.499 153.877 153.098 151.862 153.761L152.759 155.113C154.124 154.645 155.047 153.735 155.567 152.539C156.074 153.579 156.945 154.359 158.206 154.775ZM157.556 155.503C155.047 155.503 153.5 156.361 153.5 157.804C153.5 159.26 155.047 160.118 157.556 160.118C160.052 160.118 161.599 159.26 161.599 157.804C161.599 156.361 160.052 155.503 157.556 155.503ZM157.556 158.792C155.983 158.792 155.203 158.467 155.203 157.804C155.203 157.154 155.983 156.829 157.556 156.829C159.077 156.829 159.896 157.141 159.896 157.804C159.896 158.48 159.077 158.792 157.556 158.792ZM164.05 152.734L164.674 154.073C166.767 153.774 168.223 152.916 168.951 151.668C169.679 152.916 171.135 153.774 173.228 154.073L173.839 152.734C171.395 152.422 170.147 151.278 169.978 150.121H173.371V148.756H164.492V150.121H167.937C167.768 151.278 166.507 152.422 164.05 152.734ZM169.77 156.127H174.359V154.762H163.543V156.127H168.054V160.144H169.77V156.127ZM186.86 154.177H188.602V152.747H186.86V148.145H185.144V160.118H186.86V154.177ZM181.894 150.81V149.068H180.165V150.81C180.165 153.033 179.255 155.334 177.24 156.27L178.267 157.661C179.619 156.998 180.516 155.737 181.036 154.216C181.543 155.685 182.375 156.803 183.623 157.44L184.663 156.088C182.739 155.152 181.894 152.968 181.894 150.81ZM190.22 153.566H198.514V148.73H190.22V153.566ZM191.91 150.082H196.837V152.214H191.91V150.082ZM195.212 156.205H199.814V154.84H188.972V156.205H193.496V160.118H195.212V156.205ZM208.674 154.19H210.39V148.158H208.674V154.19ZM206.984 154.047L207.803 152.708C205.866 152.149 205.008 150.732 205.008 149.328V148.431H203.266V149.328C203.266 150.784 202.382 152.279 200.406 152.903L201.238 154.242C202.642 153.813 203.604 152.916 204.163 151.772C204.696 152.812 205.619 153.644 206.984 154.047ZM210.702 160.027V158.701H204.137V157.96H210.403V154.723H202.421V156.036H208.7V156.738H202.434V160.027H210.702Z" fill="#35C7A5"/>
<path d="M215.951 142.95H239.396V143.6H215.951V142.95Z" fill="#35C7A5"/>
<path d="M74 34.5L102 34.5L130 18" stroke="#4FE3C1" stroke-width="1.89432"/>
</svg>
