<svg width="128" height="41" viewBox="0 0 128 41" fill="none" xmlns="http://www.w3.org/2000/svg">
<path d="M14.9625 26.0188C15.1 25.9937 15.225 25.9812 15.3375 25.9812C15.45 25.9687 15.5625 25.9562 15.675 25.9437L15.3375 27.3125C14.8875 27.275 14.3563 27.25 13.7438 27.2375C13.1438 27.225 12.5125 27.2125 11.85 27.2C11.2 27.2 10.55 27.2063 9.9 27.2188C9.25 27.2313 8.65625 27.25 8.11875 27.275C8.09375 27.375 8.06875 27.4813 8.04375 27.5938C8.03125 27.7188 8.0125 27.8438 7.9875 27.9688L6.76875 28.175C6.73125 27.925 6.6875 27.6125 6.6375 27.2375C6.6 26.875 6.56875 26.5313 6.54375 26.2063L6.31875 22.775C6.30625 22.55 6.28125 22.375 6.24375 22.25C6.21875 22.1125 6.15625 22 6.05625 21.9125C5.96875 21.825 5.8375 21.75 5.6625 21.6875C5.5 21.6125 5.275 21.5375 4.9875 21.4625L5.325 20.7687C6.975 20.9812 8.65625 21.0687 10.3688 21.0312C12.0938 20.9812 13.7938 20.8812 15.4688 20.7312C15.4188 21.0562 15.3688 21.4437 15.3188 21.8937C15.2813 22.3437 15.2375 22.8125 15.1875 23.3C15.1375 23.7875 15.0938 24.2687 15.0563 24.7437C15.0188 25.2187 14.9875 25.6437 14.9625 26.0188ZM13.4813 21.9687C13.0938 21.9562 12.6563 21.95 12.1688 21.95C11.6938 21.9375 11.2125 21.9375 10.725 21.95C10.2375 21.9625 9.7625 21.9812 9.3 22.0062C8.8375 22.0187 8.4375 22.0312 8.1 22.0437L8.175 25.8687V26.3C9 26.2875 9.875 26.2625 10.8 26.225C11.725 26.2 12.6 26.1688 13.425 26.1313L13.4813 21.9687ZM11.6813 10.0437C11.9813 10.0812 12.3125 10.1312 12.675 10.1937C13.0375 10.2437 13.4 10.3062 13.7625 10.3812C14.125 10.4437 14.4688 10.5062 14.7938 10.5687C15.1313 10.6312 15.425 10.6812 15.675 10.7187C15.65 10.8312 15.6188 10.9687 15.5813 11.1312C15.5563 11.2937 15.5313 11.4625 15.5063 11.6375C15.4938 11.8 15.4813 11.95 15.4688 12.0875C15.4563 12.225 15.45 12.325 15.45 12.3875V17.15C15.45 17.375 15.4375 17.6375 15.4125 17.9375C15.4 18.2375 15.375 18.5375 15.3375 18.8375C15.3125 19.1375 15.2813 19.425 15.2438 19.7C15.2063 19.9625 15.1688 20.1687 15.1313 20.3187L13.8375 20.5062C13.8125 20.3812 13.7938 20.2187 13.7813 20.0187C13.7688 19.8187 13.75 19.6125 13.725 19.4C13.7125 19.175 13.7 18.9562 13.6875 18.7437C13.6875 18.5187 13.6875 18.3187 13.6875 18.1437V12.35C13.6875 11.9625 13.5 11.65 13.125 11.4125C12.7625 11.1625 12.1688 10.9375 11.3438 10.7375L11.6813 10.0437ZM10.9125 12.5562C10.6125 13.4937 10.1438 14.4187 9.50625 15.3312C8.88125 16.2437 8.15 17.1062 7.3125 17.9187C6.4875 18.7312 5.58125 19.4687 4.59375 20.1312C3.61875 20.7937 2.63125 21.35 1.63125 21.8L1.1625 21.2187C1.95 20.8062 2.71875 20.3062 3.46875 19.7187C4.23125 19.1312 4.9375 18.5 5.5875 17.825C6.25 17.15 6.8375 16.4437 7.35 15.7062C7.8625 14.9562 8.2625 14.2125 8.55 13.475C8.275 13.475 7.9875 13.4812 7.6875 13.4937C7.3875 13.4937 7.09375 13.5 6.80625 13.5125C6.53125 13.525 6.28125 13.5375 6.05625 13.55C5.83125 13.5625 5.65625 13.575 5.53125 13.5875C5.40625 13.6 5.23125 13.6187 5.00625 13.6437C4.79375 13.6562 4.55625 13.6812 4.29375 13.7187C4.04375 13.7437 3.7875 13.775 3.525 13.8125C3.275 13.8375 3.05 13.875 2.85 13.925L1.85625 12.425C1.98125 12.45 2.16875 12.475 2.41875 12.5C2.66875 12.5125 2.9375 12.5312 3.225 12.5562C3.525 12.5687 3.81875 12.5812 4.10625 12.5937C4.39375 12.6062 4.64375 12.6125 4.85625 12.6125C5.36875 12.6125 5.89375 12.6 6.43125 12.575C6.98125 12.55 7.5 12.5187 7.9875 12.4812C8.4875 12.4437 8.93125 12.4 9.31875 12.35C9.71875 12.2875 10.0313 12.225 10.2563 12.1625L10.9125 12.5562ZM31.4625 19.25C32.3 19.2 33.15 19.1375 34.0125 19.0625C34.875 18.9875 35.65 18.9 36.3375 18.8L36.0938 20.3375C35.8438 20.325 35.55 20.3125 35.2125 20.3C34.8875 20.2875 34.5313 20.2812 34.1438 20.2812C33.7563 20.2687 33.3563 20.2562 32.9438 20.2437C32.5313 20.2312 32.1188 20.225 31.7063 20.225C31.3563 20.225 30.9125 20.2312 30.375 20.2437C29.8375 20.2437 29.25 20.25 28.6125 20.2625C27.9875 20.275 27.3438 20.2937 26.6813 20.3187C26.0188 20.3312 25.3875 20.35 24.7875 20.375C24.2 20.4 23.6688 20.425 23.1938 20.45C22.7188 20.4625 22.3563 20.475 22.1063 20.4875C21.6438 20.5125 21.1375 20.55 20.5875 20.6C20.0375 20.65 19.5438 20.7062 19.1063 20.7687L18.4688 19.1375C19.0313 19.2125 19.6313 19.275 20.2688 19.325C20.9188 19.3625 21.525 19.3937 22.0875 19.4187C22.3375 19.4312 22.65 19.4375 23.025 19.4375C23.4 19.4375 23.825 19.4375 24.3 19.4375V18.8C24.3 18.55 24.225 18.3312 24.075 18.1437C23.9375 17.9562 23.6 17.8375 23.0625 17.7875L23.325 17.1312C23.575 17.1187 23.8375 17.125 24.1125 17.15C24.4 17.1625 24.6875 17.1812 24.975 17.2062C24.375 16.9062 23.9 16.5187 23.55 16.0437C23.2125 15.5562 23.0438 15.0125 23.0438 14.4125C23.0438 13.975 23.1375 13.5687 23.325 13.1937C23.525 12.8062 23.8 12.4687 24.15 12.1812C24.5 11.8812 24.9125 11.6375 25.3875 11.45C25.8625 11.2625 26.3813 11.1437 26.9438 11.0937C26.9188 10.9562 26.85 10.8437 26.7375 10.7562C26.6375 10.6687 26.4438 10.5875 26.1563 10.5125L26.4375 9.96875C26.5875 9.99375 26.7563 10.025 26.9438 10.0625C27.1313 10.1 27.325 10.1375 27.525 10.175C27.7375 10.2125 27.9438 10.25 28.1438 10.2875C28.3438 10.325 28.525 10.3562 28.6875 10.3812C28.65 10.4812 28.6063 10.6 28.5563 10.7375C28.5188 10.8625 28.4813 10.9937 28.4438 11.1312C28.9688 11.2062 29.45 11.3437 29.8875 11.5437C30.325 11.7437 30.7 11.9875 31.0125 12.275C31.3375 12.5625 31.5875 12.8875 31.7625 13.25C31.9375 13.6125 32.025 14 32.025 14.4125C32.025 14.9375 31.8875 15.4187 31.6125 15.8562C31.35 16.2812 30.9688 16.65 30.4688 16.9625C30.6813 16.975 30.8813 16.9937 31.0688 17.0187C31.2688 17.0312 31.475 17.05 31.6875 17.075C31.6375 17.2875 31.5938 17.5375 31.5563 17.825C31.5188 18.1125 31.4875 18.3625 31.4625 18.575L31.3688 19.25H31.4625ZM29.7375 18.5562C29.775 18.2437 29.7438 18.025 29.6438 17.9C29.5563 17.7625 29.3125 17.65 28.9125 17.5625C28.7 17.625 28.4688 17.675 28.2188 17.7125C27.9813 17.7375 27.7375 17.75 27.4875 17.75C27 17.75 26.5625 17.6937 26.175 17.5812C26.1375 17.7562 26.1 17.9625 26.0625 18.2C26.0375 18.425 26.025 18.625 26.025 18.8V19.4187C26.6625 19.3937 27.2875 19.375 27.9 19.3625C28.525 19.35 29.1063 19.3375 29.6438 19.325L29.7375 18.5562ZM30.1875 14.3375C30.1875 14 30.1125 13.6875 29.9625 13.4C29.825 13.1 29.6375 12.8437 29.4 12.6312C29.1625 12.4062 28.8813 12.2312 28.5563 12.1062C28.2438 11.9687 27.9125 11.9 27.5625 11.9C27.2 11.9 26.8563 11.9687 26.5313 12.1062C26.2063 12.2312 25.925 12.4062 25.6875 12.6312C25.45 12.8437 25.2625 13.1 25.125 13.4C24.9875 13.6875 24.9188 14 24.9188 14.3375C24.9188 14.6875 24.9875 15.0125 25.125 15.3125C25.2625 15.6 25.45 15.85 25.6875 16.0625C25.925 16.2625 26.2 16.4187 26.5125 16.5312C26.8375 16.6437 27.1875 16.7 27.5625 16.7C27.925 16.7 28.2625 16.6437 28.575 16.5312C28.9 16.4187 29.1813 16.2625 29.4188 16.0625C29.6563 15.85 29.8438 15.6 29.9813 15.3125C30.1188 15.0125 30.1875 14.6875 30.1875 14.3375ZM28.5375 21.65C29.0375 21.7125 29.4938 21.8437 29.9063 22.0437C30.3313 22.2312 30.6938 22.4687 30.9938 22.7562C31.3063 23.0312 31.5438 23.35 31.7063 23.7125C31.8813 24.0625 31.9688 24.4437 31.9688 24.8562C31.9688 25.3187 31.8625 25.75 31.65 26.15C31.4375 26.55 31.1375 26.8938 30.75 27.1813C30.375 27.4813 29.925 27.7125 29.4 27.875C28.875 28.05 28.3063 28.1375 27.6938 28.1375C27.0813 28.1375 26.5125 28.05 25.9875 27.875C25.475 27.7125 25.0313 27.4813 24.6563 27.1813C24.2813 26.8938 23.9875 26.55 23.775 26.15C23.5625 25.75 23.4563 25.3187 23.4563 24.8562C23.4563 24.4312 23.5438 24.0375 23.7188 23.675C23.8938 23.3 24.1375 22.9687 24.45 22.6812C24.775 22.3937 25.1563 22.1625 25.5938 21.9875C26.0438 21.8 26.5313 21.6812 27.0563 21.6312C27.0313 21.4812 26.9563 21.3625 26.8313 21.275C26.7063 21.175 26.5 21.0812 26.2125 20.9937L26.5875 20.45C26.725 20.475 26.8813 20.5062 27.0563 20.5437C27.2438 20.5812 27.4375 20.6187 27.6375 20.6562C27.8375 20.6937 28.0375 20.7375 28.2375 20.7875C28.4375 20.825 28.6188 20.8625 28.7813 20.9C28.7438 21 28.7 21.1125 28.65 21.2375C28.6125 21.3625 28.575 21.5 28.5375 21.65ZM30.15 24.7437C30.15 24.4187 30.0813 24.1125 29.9438 23.825C29.8188 23.5375 29.6438 23.2875 29.4188 23.075C29.1938 22.8625 28.9313 22.6937 28.6313 22.5687C28.3438 22.4437 28.0313 22.3812 27.6938 22.3812C27.3563 22.3812 27.0375 22.4437 26.7375 22.5687C26.45 22.6937 26.1938 22.8625 25.9688 23.075C25.7563 23.2875 25.5875 23.5375 25.4625 23.825C25.3375 24.1125 25.275 24.4187 25.275 24.7437C25.275 25.0812 25.3375 25.3937 25.4625 25.6812C25.5875 25.9687 25.7563 26.2188 25.9688 26.4313C26.1938 26.6438 26.45 26.8063 26.7375 26.9188C27.0375 27.0438 27.3563 27.1063 27.6938 27.1063C28.0313 27.1063 28.35 27.0438 28.65 26.9188C28.95 26.8063 29.2125 26.6438 29.4375 26.4313C29.6625 26.2188 29.8375 25.9687 29.9625 25.6812C30.0875 25.3937 30.15 25.0812 30.15 24.7437ZM46.6875 11.4687C47.2375 11.5312 47.7375 11.6625 48.1875 11.8625C48.65 12.0625 49.0438 12.3062 49.3688 12.5937C49.7063 12.8812 49.9625 13.2125 50.1375 13.5875C50.325 13.9625 50.4188 14.3562 50.4188 14.7687C50.4188 15.2562 50.3 15.7062 50.0625 16.1187C49.8375 16.5312 49.5188 16.8875 49.1063 17.1875C48.6938 17.4875 48.2063 17.725 47.6438 17.9C47.0813 18.075 46.4688 18.1625 45.8063 18.1625C45.1563 18.1625 44.5563 18.075 44.0063 17.9C43.4563 17.725 42.975 17.4875 42.5625 17.1875C42.1625 16.8875 41.85 16.5312 41.625 16.1187C41.4 15.7062 41.2875 15.2562 41.2875 14.7687C41.2875 14.3437 41.3813 13.9375 41.5688 13.55C41.7688 13.1625 42.0375 12.825 42.375 12.5375C42.725 12.2375 43.1375 11.9937 43.6125 11.8062C44.1 11.6187 44.625 11.5 45.1875 11.45C45.1625 11.3 45.0938 11.175 44.9813 11.075C44.8688 10.975 44.675 10.8812 44.4 10.7937L44.6813 10.2687C44.8313 10.2937 45 10.325 45.1875 10.3625C45.375 10.4 45.5688 10.4375 45.7688 10.475C45.9813 10.5125 46.1875 10.55 46.3875 10.5875C46.6 10.625 46.7875 10.6562 46.95 10.6812C46.9125 10.7937 46.8688 10.9187 46.8188 11.0562C46.7688 11.1812 46.725 11.3187 46.6875 11.4687ZM48.5625 14.6937C48.5625 14.3562 48.4875 14.0437 48.3375 13.7562C48.2 13.4562 48.0063 13.1937 47.7563 12.9687C47.5188 12.7437 47.2375 12.5687 46.9125 12.4437C46.5875 12.3062 46.2438 12.2375 45.8813 12.2375C45.5063 12.2375 45.1563 12.3062 44.8313 12.4437C44.5063 12.5687 44.2188 12.7437 43.9688 12.9687C43.7313 13.1937 43.5375 13.4562 43.3875 13.7562C43.25 14.0437 43.1813 14.3562 43.1813 14.6937C43.1813 15.0562 43.25 15.3875 43.3875 15.6875C43.525 15.975 43.7125 16.225 43.95 16.4375C44.2 16.65 44.4875 16.8187 44.8125 16.9437C45.15 17.0562 45.5063 17.1125 45.8813 17.1125C46.2563 17.1125 46.6063 17.0562 46.9313 16.9437C47.2563 16.8187 47.5375 16.65 47.775 16.4375C48.025 16.225 48.2188 15.975 48.3563 15.6875C48.4938 15.3875 48.5625 15.0562 48.5625 14.6937ZM52.05 27.575C51.275 27.5375 50.4375 27.5063 49.5375 27.4813C48.65 27.4688 47.7688 27.4688 46.8938 27.4813C46.0188 27.4938 45.1875 27.5063 44.4 27.5188C43.6125 27.5438 42.9375 27.575 42.375 27.6125C41.925 27.6375 41.6063 27.55 41.4188 27.35C41.2438 27.15 41.1563 26.9125 41.1563 26.6375V24.6687C41.1563 24.3937 41.1438 24.175 41.1188 24.0125C41.0938 23.85 41.025 23.7125 40.9125 23.6C40.8 23.4875 40.6313 23.3937 40.4063 23.3187C40.1938 23.2312 39.8938 23.1375 39.5063 23.0375L39.8063 22.3437C39.9938 22.3687 40.2313 22.4 40.5188 22.4375C40.8063 22.475 41.1 22.5187 41.4 22.5687C41.7125 22.6062 42.0125 22.6437 42.3 22.6812C42.6 22.7187 42.8438 22.75 43.0313 22.775C43.0063 22.925 42.9813 23.15 42.9563 23.45C42.9313 23.75 42.9188 24.0125 42.9188 24.2375V26.0375C42.9188 26.275 42.9563 26.4188 43.0313 26.4688C43.1063 26.5313 43.275 26.5688 43.5375 26.5813C43.85 26.5938 44.2313 26.5938 44.6813 26.5813C45.1438 26.5813 45.6375 26.5688 46.1625 26.5438C46.7 26.5313 47.25 26.5063 47.8125 26.4688C48.3875 26.4438 48.9438 26.4125 49.4813 26.375C50.0313 26.3375 50.55 26.2938 51.0375 26.2438C51.525 26.2063 51.95 26.1563 52.3125 26.0938L52.05 27.575ZM47.175 21.5C47.175 21.725 47.1688 21.975 47.1563 22.25C47.1438 22.5125 47.125 22.7875 47.1 23.075C47.075 23.3625 47.0438 23.6437 47.0063 23.9187C46.9813 24.1812 46.9563 24.425 46.9313 24.65L45.5625 24.8562C45.5375 24.6312 45.5125 24.375 45.4875 24.0875C45.475 23.8 45.4563 23.5125 45.4313 23.225C45.4188 22.9375 45.4063 22.6687 45.3938 22.4187C45.3938 22.1687 45.3938 21.9562 45.3938 21.7812V20.675C44.8688 20.6875 44.35 20.7062 43.8375 20.7312C43.325 20.7437 42.8438 20.7625 42.3938 20.7875C41.9438 20.8 41.5375 20.8187 41.175 20.8437C40.825 20.8562 40.55 20.8687 40.35 20.8812C39.8875 20.9062 39.3813 20.9437 38.8313 20.9937C38.2813 21.0437 37.7875 21.1 37.35 21.1625L36.7125 19.5312C37.275 19.5937 37.875 19.65 38.5125 19.7C39.1625 19.7375 39.7688 19.7687 40.3313 19.7937C40.6313 19.8062 41.0313 19.8125 41.5313 19.8125C42.0313 19.8125 42.575 19.8125 43.1625 19.8125C43.7625 19.8 44.3813 19.7875 45.0188 19.775C45.6688 19.75 46.2875 19.7312 46.875 19.7187C47.4625 19.7062 48.0063 19.6937 48.5063 19.6812C49.0063 19.6562 49.4063 19.6375 49.7063 19.625C50.5438 19.5875 51.3938 19.5312 52.2563 19.4562C53.1188 19.3687 53.8938 19.275 54.5813 19.175L54.3375 20.7125C54.0875 20.7 53.7938 20.6875 53.4563 20.675C53.1313 20.6625 52.775 20.6562 52.3875 20.6562C52 20.6437 51.6 20.6312 51.1875 20.6187C50.775 20.6062 50.3625 20.6 49.95 20.6C49.625 20.6 49.225 20.6 48.75 20.6C48.2875 20.6 47.7625 20.6125 47.175 20.6375V21.5Z" fill="#5D5F61"/>
<path d="M66.2174 19.9656C65.6268 19.9469 64.9846 19.9516 64.2908 19.9797C63.6064 19.9984 62.9268 20.0219 62.2518 20.05C62.2236 20.2094 62.1955 20.3687 62.1674 20.5281L61.5908 20.6125C61.5627 20.425 61.5393 20.2141 61.5205 19.9797C61.5018 19.7359 61.4924 19.4828 61.4924 19.2203V16.0984C61.4924 15.7797 61.4174 15.5453 61.2674 15.3953C61.1174 15.2453 60.8127 15.1141 60.3533 15.0016L60.4939 14.6641C60.8127 14.6922 61.1408 14.7297 61.4783 14.7766C61.8158 14.8141 62.1721 14.8703 62.5471 14.9453C62.5002 15.1234 62.4627 15.3062 62.4346 15.4937C62.4064 15.6812 62.3924 15.8687 62.3924 16.0562V16.6328C63.0018 16.6234 63.6064 16.6094 64.2064 16.5906C64.8064 16.5625 65.4627 16.5109 66.1752 16.4359V15.55C66.1752 15.3906 66.1518 15.2547 66.1049 15.1422C66.0674 15.0297 65.9971 14.9312 65.8939 14.8469C65.8002 14.7625 65.6689 14.6922 65.5002 14.6359C65.3408 14.5703 65.1346 14.5047 64.8814 14.4391L65.0361 14.0875C65.4299 14.1344 65.8002 14.1812 66.1471 14.2281C66.5033 14.2656 66.8643 14.3219 67.2299 14.3969C67.1924 14.575 67.1596 14.7625 67.1314 14.9594C67.1033 15.1469 67.0893 15.3297 67.0893 15.5078V16.7031C67.2861 16.7312 67.5299 16.7547 67.8205 16.7734C68.1111 16.7922 68.3924 16.7969 68.6643 16.7875C68.8611 16.7781 69.058 16.7734 69.2549 16.7734C69.4611 16.7734 69.658 16.7734 69.8455 16.7734V14.7203C69.8455 14.4016 69.7002 14.1484 69.4096 13.9609C69.1283 13.7641 68.6877 13.5953 68.0877 13.4547L68.2424 13.075C68.7205 13.1312 69.1939 13.2062 69.6627 13.3C70.1408 13.3844 70.5674 13.4641 70.9424 13.5391C70.8955 13.7078 70.858 13.9 70.8299 14.1156C70.8018 14.3312 70.7877 14.5328 70.7877 14.7203V18.2219C70.7877 18.3906 70.7783 18.5875 70.7596 18.8125C70.7502 19.0281 70.7314 19.2484 70.7033 19.4734C70.6846 19.6891 70.6611 19.8953 70.633 20.0922C70.6143 20.2797 70.5908 20.4344 70.5627 20.5562L69.9439 20.6406C69.9158 20.4344 69.8924 20.1719 69.8736 19.8531C69.8549 19.5344 69.8455 19.2437 69.8455 18.9812V17.2516C69.3393 17.2703 68.8939 17.3031 68.5096 17.35C68.1346 17.3875 67.7689 17.4437 67.4127 17.5187L67.0893 16.8156V18.4187C67.0893 18.5875 67.0799 18.7656 67.0611 18.9531C67.0518 19.1312 67.033 19.3094 67.0049 19.4875C66.9861 19.6562 66.9627 19.8156 66.9346 19.9656C66.9158 20.1156 66.8924 20.2469 66.8643 20.3594L66.2736 20.4437C66.2549 20.3687 66.2408 20.2937 66.2314 20.2187C66.2314 20.1344 66.2268 20.05 66.2174 19.9656ZM66.1752 19.0375V17.0828C65.5564 17.0547 64.9377 17.05 64.3189 17.0687C63.7096 17.0875 63.0674 17.1203 62.3924 17.1672V18.6016C62.3924 18.7516 62.383 18.9062 62.3643 19.0656C62.3549 19.2156 62.3408 19.3703 62.3221 19.5297C62.9502 19.5203 63.5924 19.5016 64.2486 19.4734C64.9049 19.4453 65.5471 19.4078 66.1752 19.3609V19.0375ZM69.8174 25.8297C69.0955 25.8016 68.3596 25.8016 67.6096 25.8297C66.8596 25.8578 66.0486 25.8953 65.1768 25.9422C65.158 26.0359 65.1393 26.125 65.1205 26.2094C65.1111 26.2938 65.0971 26.3734 65.0783 26.4484L64.5018 26.5469C64.4736 26.3594 64.4502 26.1438 64.4314 25.9C64.4127 25.6656 64.4033 25.4172 64.4033 25.1547V22.75C64.4033 22.4312 64.3283 22.1969 64.1783 22.0469C64.0283 21.8969 63.7236 21.7656 63.2643 21.6531L63.4049 21.3156C63.7236 21.3437 64.0518 21.3812 64.3893 21.4281C64.7268 21.4656 65.0783 21.5219 65.4439 21.5969C65.4064 21.775 65.3736 21.9625 65.3455 22.1594C65.3174 22.3469 65.3033 22.5297 65.3033 22.7078V22.9469C66.0533 22.9375 66.7846 22.9187 67.4971 22.8906C68.2096 22.8625 68.9689 22.8109 69.7752 22.7359V22.3141C69.7752 22.1547 69.7518 22.0187 69.7049 21.9062C69.6674 21.7937 69.5971 21.6953 69.4939 21.6109C69.4002 21.5266 69.2689 21.4516 69.1002 21.3859C68.9408 21.3203 68.7346 21.2594 68.4814 21.2031L68.6361 20.8375C69.0299 20.8844 69.4002 20.9312 69.7471 20.9781C70.1033 21.025 70.4643 21.0859 70.8299 21.1609C70.7924 21.3297 70.7596 21.5125 70.7314 21.7094C70.7033 21.8969 70.6893 22.0797 70.6893 22.2578V24.3531C70.6893 24.6906 70.6611 25.0422 70.6049 25.4078C70.558 25.7734 70.5111 26.0688 70.4643 26.2938L69.8736 26.3781C69.8549 26.3031 69.8408 26.2188 69.8314 26.125C69.8314 26.0313 69.8268 25.9328 69.8174 25.8297ZM69.7752 24.9719V23.2984C69.0439 23.2703 68.3174 23.2797 67.5955 23.3266C66.8736 23.3641 66.1096 23.4109 65.3033 23.4672V24.5359C65.3033 24.6766 65.2986 24.8219 65.2893 24.9719C65.2799 25.1125 65.2611 25.2578 65.233 25.4078C65.9924 25.3984 66.7471 25.375 67.4971 25.3375C68.2564 25.3094 69.0158 25.2672 69.7752 25.2109V24.9719ZM82.5018 14.2562C82.2674 14.2469 81.9393 14.2422 81.5174 14.2422C81.1049 14.2422 80.6689 14.2469 80.2096 14.2562C79.7502 14.2656 79.3096 14.2797 78.8877 14.2984C78.4658 14.3078 78.133 14.3219 77.8893 14.3406C77.7861 14.35 77.6596 14.3594 77.5096 14.3687C77.3596 14.3781 77.1955 14.3922 77.0174 14.4109C76.8393 14.4203 76.6518 14.4391 76.4549 14.4672C76.2674 14.4859 76.0846 14.5141 75.9064 14.5516L75.4143 13.6656C75.5268 13.6844 75.658 13.7078 75.808 13.7359C75.958 13.7547 76.1174 13.7734 76.2861 13.7922C76.4549 13.8109 76.6236 13.825 76.7924 13.8344C76.9705 13.8437 77.1346 13.8484 77.2846 13.8484C77.6502 13.8484 78.1002 13.8484 78.6346 13.8484C79.1783 13.8484 79.7455 13.8437 80.3361 13.8344C80.9361 13.8156 81.5268 13.7969 82.108 13.7781C82.6986 13.75 83.2236 13.7172 83.683 13.6797C83.6549 13.7641 83.6268 13.8953 83.5986 14.0734C83.5705 14.2516 83.5377 14.4297 83.5002 14.6078L83.2893 15.55C83.3643 15.5406 83.4299 15.5359 83.4861 15.5359C83.5518 15.5359 83.6127 15.5312 83.6689 15.5219L83.5986 16.1969C83.0549 16.1687 82.4643 16.1547 81.8268 16.1547C81.1893 16.1547 80.5705 16.1641 79.9705 16.1828C79.3705 16.1922 78.8221 16.2062 78.3252 16.225C77.8377 16.2437 77.4721 16.2578 77.2283 16.2672C77.2189 16.3703 77.2096 16.4687 77.2002 16.5625C77.2002 16.6562 77.2002 16.7406 77.2002 16.8156V17.3078C77.2002 17.4859 77.2377 17.5984 77.3127 17.6453C77.3877 17.6922 77.5471 17.7203 77.7908 17.7297C78.1377 17.7391 78.5877 17.7391 79.1408 17.7297C79.6939 17.7203 80.2705 17.7016 80.8705 17.6734C81.4799 17.6359 82.0705 17.5937 82.6424 17.5469C83.2236 17.4906 83.7158 17.4297 84.1189 17.3641L83.908 18.25C83.3924 18.2312 82.8205 18.2219 82.1924 18.2219C81.5643 18.2125 80.9314 18.2125 80.2939 18.2219C79.6658 18.2312 79.0564 18.2453 78.4658 18.2641C77.8846 18.2828 77.3783 18.3016 76.9471 18.3203C76.7033 18.3391 76.5252 18.2828 76.4127 18.1516C76.3096 18.0109 76.258 17.8328 76.258 17.6172V17.0687C76.258 16.8906 76.2439 16.7453 76.2158 16.6328C76.1971 16.5109 76.1502 16.4125 76.0752 16.3375C76.0096 16.2531 75.9064 16.1828 75.7658 16.1266C75.6346 16.0609 75.4611 15.9953 75.2455 15.9297L75.3861 15.6062C75.9018 15.6625 76.4643 15.7047 77.0736 15.7328C77.6924 15.7516 78.3158 15.7609 78.9439 15.7609C79.5814 15.7516 80.2002 15.7375 80.8002 15.7187C81.4096 15.6906 81.9627 15.6578 82.4596 15.6203L82.5018 14.2562ZM77.6502 20.0359C77.2002 20.0453 76.8064 20.0547 76.4689 20.0641C76.1314 20.0734 75.8689 20.0875 75.6814 20.1062C75.3158 20.125 74.9502 20.1484 74.5846 20.1766C74.2283 20.2047 73.8768 20.2422 73.5299 20.2891L73.1643 19.3187C73.6049 19.3656 74.0221 19.4031 74.4158 19.4312C74.8096 19.45 75.2268 19.4687 75.6674 19.4875C75.9018 19.4969 76.2111 19.5016 76.5955 19.5016C76.9799 19.5016 77.3971 19.5016 77.8471 19.5016C78.3064 19.4922 78.7799 19.4828 79.2674 19.4734C79.7643 19.4547 80.2377 19.4406 80.6877 19.4312C81.1471 19.4219 81.5643 19.4125 81.9393 19.4031C82.3236 19.3844 82.633 19.3703 82.8674 19.3609C83.5143 19.3234 84.1283 19.2812 84.7096 19.2344C85.2908 19.1875 85.8346 19.1266 86.3408 19.0516L86.2002 19.9797C85.8252 19.9609 85.3611 19.9469 84.808 19.9375C84.2643 19.9281 83.6736 19.9187 83.0361 19.9094C82.9518 19.9094 82.8533 19.9094 82.7408 19.9094C82.6377 19.9094 82.5205 19.9141 82.3893 19.9234V20.05C82.3893 20.3219 82.3799 20.5797 82.3611 20.8234C82.3424 21.0672 82.3189 21.2922 82.2908 21.4984C82.5627 21.4797 82.8205 21.4656 83.0643 21.4562C83.3174 21.4375 83.5564 21.4187 83.7814 21.4C83.7533 21.4844 83.7252 21.6156 83.6971 21.7937C83.6689 21.9719 83.6361 22.15 83.5986 22.3281L83.4018 23.3687C83.4768 23.3594 83.5424 23.3547 83.5986 23.3547C83.6549 23.3547 83.7111 23.35 83.7674 23.3406L83.6971 24.0016C83.1533 23.9734 82.5721 23.9594 81.9533 23.9594C81.3439 23.9594 80.7533 23.9687 80.1814 23.9875C79.6096 23.9969 79.0893 24.0109 78.6205 24.0297C78.1518 24.0484 77.8002 24.0625 77.5658 24.0719C77.5564 24.1656 77.5471 24.2641 77.5377 24.3672C77.5377 24.4703 77.5377 24.5594 77.5377 24.6344V25.2531C77.5377 25.4313 77.5752 25.5438 77.6502 25.5906C77.7252 25.6375 77.8846 25.6656 78.1283 25.675C78.4752 25.6844 78.9205 25.6844 79.4643 25.675C80.0174 25.6656 80.5939 25.6422 81.1939 25.6047C81.7939 25.5766 82.3799 25.5391 82.9518 25.4922C83.5236 25.4453 84.0111 25.3891 84.4143 25.3234L84.2174 26.1953C83.6924 26.1766 83.1158 26.1625 82.4877 26.1531C81.8596 26.1531 81.2268 26.1578 80.5893 26.1672C79.9611 26.1766 79.3564 26.1906 78.7752 26.2094C78.1939 26.2281 77.6877 26.2469 77.2564 26.2656C77.0127 26.2844 76.8346 26.2234 76.7221 26.0828C76.6189 25.9516 76.5674 25.7781 76.5674 25.5625V24.8875C76.5674 24.7094 76.5533 24.5641 76.5252 24.4516C76.5064 24.3297 76.4596 24.2312 76.3846 24.1562C76.3189 24.0719 76.2205 24.0016 76.0893 23.9453C75.958 23.8797 75.7799 23.8141 75.5549 23.7484L75.7096 23.425C76.2158 23.4812 76.7643 23.5234 77.3549 23.5516C77.9549 23.5703 78.5549 23.5797 79.1549 23.5797C79.7643 23.5703 80.3596 23.5562 80.9408 23.5375C81.5314 23.5094 82.0705 23.4766 82.558 23.4391L82.6002 21.9766C82.3658 21.9672 82.0518 21.9625 81.658 21.9625C81.2736 21.9625 80.8705 21.9672 80.4486 21.9766C80.0268 21.9859 79.6189 22 79.2252 22.0187C78.8314 22.0281 78.5127 22.0422 78.2689 22.0609C78.1658 22.0703 78.0346 22.0797 77.8752 22.0891C77.7252 22.0984 77.5611 22.1125 77.383 22.1312C77.2049 22.1406 77.0221 22.1594 76.8346 22.1875C76.6471 22.2062 76.4643 22.2297 76.2861 22.2578L75.7939 21.3859C75.9064 21.4047 76.0377 21.4281 76.1877 21.4562C76.3377 21.475 76.4971 21.4937 76.6658 21.5125C76.8346 21.5312 77.0033 21.5453 77.1721 21.5547C77.3502 21.5641 77.5143 21.5687 77.6643 21.5687H77.6924C77.683 21.3812 77.6736 21.1703 77.6643 20.9359C77.6549 20.7016 77.6502 20.4812 77.6502 20.275V20.0359ZM78.6486 20.0781C78.6486 20.6781 78.6064 21.1797 78.5221 21.5828C78.9533 21.5734 79.4174 21.5687 79.9143 21.5687C80.4205 21.5594 80.9268 21.5453 81.433 21.5266C81.4236 21.3391 81.4143 21.1281 81.4049 20.8937C81.3955 20.6594 81.3908 20.4437 81.3908 20.2469V19.9375C80.9689 19.9469 80.5189 19.9562 80.0408 19.9656C79.5721 19.9656 79.108 19.975 78.6486 19.9937V20.0781ZM91.3049 18.2922C91.8299 18.8266 92.3924 19.3609 92.9924 19.8953C93.5924 20.4297 94.2533 20.9641 94.9752 21.4984L94.1596 22.2859C93.6346 21.6859 93.1236 21.1 92.6268 20.5281C92.1299 19.9469 91.6002 19.3469 91.0377 18.7281C90.5314 19.4875 89.9549 20.2 89.308 20.8656C88.6611 21.5219 87.9299 22.1266 87.1143 22.6797L86.833 22.3984C87.3955 21.9578 87.9111 21.4844 88.3799 20.9781C88.858 20.4625 89.2799 19.9328 89.6455 19.3891C90.0111 18.8453 90.3252 18.2875 90.5877 17.7156C90.8502 17.1437 91.0518 16.5766 91.1924 16.0141C91.2299 15.8828 91.2533 15.7844 91.2627 15.7187C91.2721 15.6437 91.2205 15.5687 91.108 15.4937C91.0143 15.4375 90.8971 15.3672 90.7564 15.2828C90.6252 15.1984 90.4518 15.1047 90.2361 15.0016L90.4752 14.7062C90.8596 14.8094 91.2252 14.9078 91.5721 15.0016C91.9283 15.0953 92.2893 15.2172 92.6549 15.3672C92.3361 16.3797 91.8861 17.3547 91.3049 18.2922ZM97.408 22.5953C97.408 22.8859 97.3986 23.2187 97.3799 23.5937C97.3705 23.9687 97.3564 24.3437 97.3377 24.7187C97.3189 25.0938 97.2955 25.45 97.2674 25.7875C97.2393 26.125 97.2064 26.4016 97.1689 26.6172L96.5783 26.6875C96.5596 26.5281 96.5408 26.3266 96.5221 26.0828C96.5127 25.8484 96.4986 25.5906 96.4799 25.3094C96.4705 25.0375 96.4611 24.7562 96.4518 24.4656C96.4518 24.175 96.4518 23.8937 96.4518 23.6219V14.7203C96.4518 14.4016 96.3111 14.1484 96.0299 13.9609C95.7486 13.7641 95.308 13.5953 94.708 13.4547L94.8627 13.075C95.3314 13.1312 95.8049 13.2062 96.283 13.3C96.7611 13.3844 97.183 13.4641 97.5486 13.5391C97.5111 13.7078 97.4783 13.9 97.4502 14.1156C97.4221 14.3312 97.408 14.5328 97.408 14.7203V18.9672C97.7924 18.9484 98.233 18.9156 98.7299 18.8687C99.2268 18.8219 99.7283 18.7516 100.235 18.6578L100.108 19.5578C99.9111 19.5484 99.6955 19.5437 99.4611 19.5437C99.2268 19.5437 98.9877 19.5437 98.7439 19.5437C98.5002 19.5437 98.2611 19.5484 98.0268 19.5578C97.8018 19.5578 97.5955 19.5578 97.408 19.5578V22.5953ZM110.514 17.7859C110.617 17.7672 110.716 17.7578 110.81 17.7578C110.903 17.7484 110.988 17.7391 111.063 17.7297L110.88 18.5031C110.496 18.475 110.031 18.4562 109.488 18.4469C108.944 18.4375 108.377 18.4328 107.786 18.4328C107.205 18.4328 106.628 18.4375 106.056 18.4469C105.494 18.4562 105.006 18.4703 104.594 18.4891C104.585 18.5641 104.575 18.6391 104.566 18.7141C104.556 18.7797 104.542 18.85 104.524 18.925L103.975 19.0094C103.928 18.8219 103.891 18.625 103.863 18.4187C103.835 18.2031 103.811 17.9734 103.792 17.7297L103.581 15.325C103.563 15.1469 103.539 15.0016 103.511 14.8891C103.483 14.7766 103.436 14.6875 103.371 14.6219C103.305 14.5469 103.211 14.4859 103.089 14.4391C102.967 14.3828 102.808 14.3266 102.611 14.2703L102.766 13.9187C103.366 13.9937 104.013 14.0453 104.706 14.0734C105.4 14.0922 106.103 14.0969 106.816 14.0875C107.538 14.0687 108.25 14.0406 108.953 14.0031C109.666 13.9656 110.341 13.9187 110.978 13.8625C110.941 14.125 110.899 14.4297 110.852 14.7766C110.805 15.1141 110.758 15.4656 110.711 15.8312C110.674 16.1875 110.636 16.5391 110.599 16.8859C110.561 17.2234 110.533 17.5234 110.514 17.7859ZM109.867 14.5937C109.567 14.5844 109.169 14.5797 108.672 14.5797C108.185 14.5703 107.678 14.5703 107.153 14.5797C106.628 14.5891 106.127 14.6031 105.649 14.6219C105.171 14.6312 104.8 14.6453 104.538 14.6641L104.664 17.4906C104.664 17.5656 104.664 17.6453 104.664 17.7297C104.664 17.8047 104.66 17.8844 104.65 17.9687C105.016 17.9687 105.414 17.9687 105.846 17.9687C106.286 17.9594 106.731 17.95 107.181 17.9406C107.631 17.9312 108.077 17.9172 108.517 17.8984C108.967 17.8797 109.385 17.8609 109.769 17.8422L109.867 14.5937ZM107.871 23.4531C107.871 23.7062 107.866 23.9734 107.856 24.2547C107.847 24.5266 107.828 24.7984 107.8 25.0703C107.781 25.3516 107.758 25.6188 107.73 25.8719C107.702 26.125 107.669 26.35 107.631 26.5469L107.013 26.6453C106.994 26.4766 106.975 26.2797 106.956 26.0547C106.947 25.8297 106.938 25.5953 106.928 25.3516C106.919 25.1078 106.914 24.8641 106.914 24.6203C106.914 24.3672 106.914 24.1375 106.914 23.9312V21.0625C106.521 21.0812 106.131 21.0953 105.747 21.1047C105.363 21.1141 105.002 21.1281 104.664 21.1469C104.336 21.1562 104.036 21.1703 103.764 21.1891C103.502 21.1984 103.296 21.2078 103.146 21.2172C102.789 21.2359 102.428 21.2594 102.063 21.2875C101.697 21.3156 101.341 21.3531 100.994 21.4L100.642 20.4156C101.074 20.4719 101.486 20.5141 101.88 20.5422C102.274 20.5609 102.691 20.5797 103.131 20.5984C103.366 20.6078 103.666 20.6125 104.031 20.6125C104.406 20.6125 104.814 20.6125 105.255 20.6125C105.705 20.6031 106.164 20.5937 106.633 20.5844C107.111 20.5656 107.571 20.5516 108.011 20.5422C108.452 20.5234 108.855 20.5094 109.221 20.5C109.586 20.4812 109.886 20.4672 110.121 20.4578C110.767 20.4297 111.381 20.3922 111.963 20.3453C112.553 20.2984 113.102 20.2375 113.608 20.1625L113.467 21.0766C113.092 21.0578 112.628 21.0437 112.075 21.0344C111.531 21.025 110.941 21.0156 110.303 21.0062C110.031 21.0062 109.68 21.0109 109.249 21.0203C108.827 21.0203 108.367 21.0297 107.871 21.0484V23.4531ZM120.949 16.6469C121.296 16.8812 121.699 17.1297 122.158 17.3922C122.617 17.6453 123.091 17.8937 123.578 18.1375C124.066 18.3719 124.544 18.5922 125.013 18.7984C125.481 19.0047 125.903 19.1781 126.278 19.3187L125.449 20.1344C124.689 19.5719 123.888 19.0422 123.044 18.5453C122.2 18.0391 121.394 17.5375 120.625 17.0406C119.922 17.8656 119.135 18.5828 118.263 19.1922C117.391 19.7922 116.5 20.2797 115.591 20.6547L115.31 20.3172C115.9 20.0453 116.458 19.7266 116.983 19.3609C117.517 18.9953 118.01 18.6016 118.46 18.1797C118.91 17.7578 119.313 17.3172 119.669 16.8578C120.035 16.3984 120.344 15.9344 120.597 15.4656C120.663 15.3531 120.696 15.2641 120.696 15.1984C120.696 15.1328 120.639 15.0578 120.527 14.9734C120.442 14.9172 120.344 14.8562 120.231 14.7906C120.119 14.725 119.946 14.6312 119.711 14.5094L119.95 14.1719C120.335 14.275 120.7 14.3828 121.047 14.4953C121.394 14.5984 121.755 14.7203 122.13 14.8609C121.802 15.4984 121.408 16.0937 120.949 16.6469ZM121.61 23.7625C122.041 23.7437 122.439 23.7297 122.805 23.7203C123.171 23.7109 123.471 23.7016 123.705 23.6922C124.352 23.6641 124.966 23.6219 125.547 23.5656C126.128 23.5094 126.677 23.4437 127.192 23.3687L127.052 24.2969C126.677 24.2781 126.213 24.2687 125.66 24.2687C125.116 24.2594 124.525 24.25 123.888 24.2406C123.625 24.2406 123.297 24.2453 122.903 24.2547C122.519 24.2547 122.102 24.2641 121.652 24.2828C121.211 24.2922 120.756 24.3062 120.288 24.325C119.819 24.3344 119.374 24.3484 118.952 24.3672C118.53 24.3766 118.146 24.3906 117.799 24.4094C117.461 24.4281 117.199 24.4422 117.011 24.4516C116.655 24.4703 116.294 24.4937 115.928 24.5219C115.572 24.5406 115.221 24.5734 114.874 24.6203L114.508 23.65C114.939 23.6969 115.352 23.7344 115.746 23.7625C116.149 23.7812 116.566 23.8 116.997 23.8187C117.185 23.8281 117.414 23.8328 117.686 23.8328C117.967 23.8328 118.267 23.8328 118.586 23.8328C118.914 23.8328 119.252 23.8281 119.599 23.8187C119.955 23.8094 120.311 23.8 120.667 23.7906V21.4422C120.667 21.2828 120.649 21.1516 120.611 21.0484C120.574 20.9453 120.503 20.8609 120.4 20.7953C120.306 20.7203 120.18 20.6641 120.021 20.6266C119.861 20.5797 119.66 20.5422 119.416 20.5141L119.556 20.1484C119.875 20.1391 120.227 20.1484 120.611 20.1766C121.005 20.2047 121.385 20.2422 121.75 20.2891C121.713 20.4672 121.68 20.65 121.652 20.8375C121.624 21.025 121.61 21.2125 121.61 21.4V23.7625Z" fill="#5D5F61"/>
</svg>
