<svg width="160" height="24" viewBox="0 0 160 24" fill="none" xmlns="http://www.w3.org/2000/svg">
<path d="M98.7632 18.6891C97.6587 18.6891 96.6881 18.5103 95.8513 18.1529C95.0146 17.7784 94.3452 17.2678 93.8431 16.621C93.3411 15.9741 93.0399 15.2252 92.9395 14.3741H96.1777C96.2781 14.8677 96.5458 15.2933 96.981 15.6507C97.4328 15.9912 98.0102 16.1614 98.713 16.1614C99.4159 16.1614 99.9263 16.0167 100.244 15.7273C100.579 15.438 100.746 15.106 100.746 14.7316C100.746 14.1869 100.512 13.8209 100.043 13.6337C99.5749 13.4294 98.9222 13.2337 98.0855 13.0465C97.5499 12.9273 97.0061 12.7826 96.4538 12.6124C95.9015 12.4422 95.3911 12.2294 94.9226 11.9741C94.4707 11.7018 94.1025 11.3613 93.818 10.9528C93.5335 10.5273 93.3913 10.0081 93.3913 9.39536C93.3913 8.27195 93.8264 7.32726 94.6966 6.5613C95.5836 5.79534 96.822 5.41235 98.4118 5.41235C99.8845 5.41235 101.056 5.76129 101.926 6.45917C102.813 7.15705 103.34 8.11876 103.508 9.3443H100.47C100.286 8.40812 99.5916 7.94003 98.3867 7.94003C97.7842 7.94003 97.3157 8.05918 96.981 8.29748C96.663 8.53578 96.504 8.83366 96.504 9.19111C96.504 9.56558 96.7467 9.86345 97.232 10.0847C97.7173 10.306 98.3616 10.5103 99.1649 10.6975C100.035 10.9018 100.83 11.1315 101.55 11.3869C102.286 11.6252 102.872 11.9911 103.307 12.4847C103.742 12.9613 103.959 13.6507 103.959 14.5529C103.976 15.3358 103.775 16.0422 103.357 16.672C102.939 17.3018 102.336 17.7954 101.55 18.1529C100.763 18.5103 99.8343 18.6891 98.7632 18.6891Z" fill="#9198A5"/>
<path d="M105.551 23.9997V5.71874H108.412L108.764 7.53152C109.165 6.96981 109.693 6.47619 110.345 6.05066C111.015 5.62512 111.877 5.41235 112.931 5.41235C114.102 5.41235 115.148 5.70172 116.069 6.28044C116.989 6.85917 117.717 7.65067 118.253 8.65493C118.788 9.6592 119.056 10.7996 119.056 12.0762C119.056 13.3528 118.788 14.4933 118.253 15.4975C117.717 16.4848 116.989 17.2678 116.069 17.8465C115.148 18.4082 114.102 18.6891 112.931 18.6891C111.994 18.6891 111.174 18.5103 110.471 18.1529C109.768 17.7954 109.199 17.2933 108.764 16.6465V23.9997H105.551ZM112.253 15.8295C113.274 15.8295 114.119 15.4805 114.788 14.7826C115.458 14.0848 115.793 13.1826 115.793 12.0762C115.793 10.9698 115.458 10.0592 114.788 9.3443C114.119 8.6294 113.274 8.27195 112.253 8.27195C111.216 8.27195 110.362 8.6294 109.693 9.3443C109.04 10.0422 108.714 10.9443 108.714 12.0507C108.714 13.1571 109.04 14.0677 109.693 14.7826C110.362 15.4805 111.216 15.8295 112.253 15.8295Z" fill="#9198A5"/>
<path d="M124.964 18.6891C123.893 18.6891 123.014 18.5188 122.328 18.1784C121.642 17.821 121.131 17.3529 120.797 16.7741C120.462 16.1954 120.294 15.5571 120.294 14.8592C120.294 13.6848 120.746 12.7316 121.65 11.9996C122.554 11.2677 123.909 10.9018 125.717 10.9018H128.88V10.5954C128.88 9.72728 128.637 9.08898 128.152 8.68046C127.666 8.27195 127.064 8.06769 126.344 8.06769C125.692 8.06769 125.123 8.2294 124.637 8.5528C124.152 8.85919 123.851 9.31877 123.734 9.93154H120.596C120.679 9.01238 120.981 8.21238 121.499 7.53152C122.035 6.85066 122.721 6.33151 123.558 5.97406C124.395 5.59959 125.332 5.41235 126.369 5.41235C128.143 5.41235 129.541 5.86342 130.561 6.76556C131.582 7.66769 132.093 8.9443 132.093 10.5954V18.3827H129.356L129.055 16.3401C128.687 17.021 128.168 17.5827 127.499 18.0252C126.846 18.4678 126.001 18.6891 124.964 18.6891ZM125.692 16.1358C126.612 16.1358 127.323 15.8295 127.825 15.2167C128.344 14.6039 128.67 13.8465 128.804 12.9443H126.068C125.215 12.9443 124.604 13.106 124.236 13.4294C123.867 13.7358 123.683 14.1188 123.683 14.5784C123.683 15.072 123.867 15.455 124.236 15.7273C124.604 15.9997 125.089 16.1358 125.692 16.1358Z" fill="#9198A5"/>
<path d="M140.004 18.6891C138.732 18.6891 137.611 18.4082 136.64 17.8465C135.669 17.2848 134.9 16.5018 134.331 15.4975C133.778 14.4933 133.502 13.3443 133.502 12.0507C133.502 10.7571 133.778 9.60813 134.331 8.60387C134.9 7.5996 135.669 6.81662 136.64 6.25491C137.611 5.69321 138.732 5.41235 140.004 5.41235C141.593 5.41235 142.932 5.83789 144.02 6.68896C145.108 7.52301 145.802 8.68046 146.104 10.1613H142.715C142.547 9.54856 142.213 9.07196 141.711 8.73153C141.225 8.37408 140.648 8.19535 139.979 8.19535C139.092 8.19535 138.339 8.53578 137.719 9.21664C137.1 9.89749 136.791 10.8422 136.791 12.0507C136.791 13.2592 137.1 14.2039 137.719 14.8848C138.339 15.5656 139.092 15.9061 139.979 15.9061C140.648 15.9061 141.225 15.7358 141.711 15.3954C142.213 15.055 142.547 14.5699 142.715 13.9401H146.104C145.802 15.3699 145.108 16.5188 144.02 17.3869C142.932 18.255 141.593 18.6891 140.004 18.6891Z" fill="#9198A5"/>
<path d="M153.75 18.6891C152.495 18.6891 151.382 18.4167 150.411 17.872C149.441 17.3273 148.679 16.5614 148.127 15.5741C147.575 14.5869 147.299 13.4465 147.299 12.1528C147.299 10.8422 147.566 9.67622 148.102 8.65493C148.654 7.63365 149.407 6.84215 150.361 6.28044C151.332 5.70172 152.47 5.41235 153.775 5.41235C154.997 5.41235 156.076 5.6847 157.013 6.22938C157.951 6.77407 158.678 7.52301 159.197 8.47621C159.733 9.41238 160.001 10.4592 160.001 11.6167C160.001 11.8039 159.992 11.9996 159.975 12.2039C159.975 12.4082 159.967 12.6209 159.95 12.8422H150.487C150.554 13.8294 150.888 14.6039 151.491 15.1656C152.11 15.7273 152.855 16.0082 153.725 16.0082C154.378 16.0082 154.921 15.8635 155.357 15.5741C155.808 15.2678 156.143 14.8763 156.361 14.3997H159.624C159.39 15.1997 158.996 15.9316 158.444 16.5954C157.909 17.2422 157.239 17.7529 156.436 18.1273C155.649 18.5018 154.754 18.6891 153.75 18.6891ZM153.775 8.06769C152.989 8.06769 152.294 8.29748 151.692 8.75706C151.089 9.19962 150.704 9.88047 150.537 10.7996H156.737C156.687 9.96558 156.386 9.30175 155.834 8.80812C155.281 8.3145 154.595 8.06769 153.775 8.06769Z" fill="#9198A5"/>
<path d="M7.38013 18.6895C6.44297 18.6895 5.62296 18.5108 4.92009 18.1533C4.21722 17.7959 3.64823 17.2938 3.21312 16.6469L2.86168 18.3831H0V0H3.21312V7.53197C3.61476 6.97027 4.14191 6.47665 4.79458 6.05111C5.46397 5.62558 6.32583 5.41281 7.38013 5.41281C8.55158 5.41281 9.59752 5.70217 10.5179 6.2809C11.4384 6.85963 12.1663 7.65112 12.7019 8.65539C13.2374 9.65965 13.5051 10.8001 13.5051 12.0767C13.5051 13.3533 13.2374 14.4937 12.7019 15.498C12.1663 16.4852 11.4384 17.2682 10.5179 17.8469C9.59752 18.4087 8.55158 18.6895 7.38013 18.6895ZM6.70236 15.8299C7.7232 15.8299 8.56832 15.481 9.23772 14.7831C9.90711 14.0852 10.2418 13.1831 10.2418 12.0767C10.2418 10.9703 9.90711 10.0597 9.23772 9.34476C8.56832 8.62986 7.7232 8.27241 6.70236 8.27241C5.66479 8.27241 4.81131 8.62986 4.14191 9.34476C3.48925 10.0426 3.16291 10.9448 3.16291 12.0512C3.16291 13.1575 3.48925 14.0682 4.14191 14.7831C4.81131 15.481 5.66479 15.8299 6.70236 15.8299Z" fill="#353C49"/>
<path d="M19.4129 18.6895C18.3418 18.6895 17.4632 18.5193 16.7771 18.1789C16.091 17.8214 15.5805 17.3533 15.2458 16.7746C14.9111 16.1959 14.7438 15.5576 14.7438 14.8597C14.7438 13.6852 15.1956 12.732 16.0993 12.0001C17.003 11.2682 18.3585 10.9022 20.1659 10.9022H23.3288V10.5958C23.3288 9.72774 23.0862 9.08943 22.6009 8.68092C22.1156 8.27241 21.5131 8.06815 20.7935 8.06815C20.1408 8.06815 19.5718 8.22985 19.0865 8.55326C18.6012 8.85964 18.3 9.31922 18.1828 9.93199H15.045C15.1287 9.01284 15.4299 8.21283 15.9487 7.53197C16.4842 6.85112 17.1704 6.33196 18.0071 5.97451C18.8439 5.60004 19.781 5.41281 20.8186 5.41281C22.5925 5.41281 23.9899 5.86388 25.0107 6.76601C26.0315 7.66815 26.542 8.94475 26.542 10.5958V18.3831H23.8058L23.5046 16.3406C23.1364 17.0214 22.6176 17.5831 21.9482 18.0257C21.2955 18.4682 20.4504 18.6895 19.4129 18.6895ZM20.1408 16.1363C21.0612 16.1363 21.7725 15.8299 22.2745 15.2171C22.7933 14.6044 23.1197 13.8469 23.2535 12.9448H20.5174C19.6639 12.9448 19.053 13.1065 18.6849 13.4299C18.3167 13.7363 18.1326 14.1193 18.1326 14.5788C18.1326 15.0725 18.3167 15.4554 18.6849 15.7278C19.053 16.0001 19.5384 16.1363 20.1408 16.1363Z" fill="#353C49"/>
<path d="M39.1418 18.6895C38.0708 18.6895 37.1922 18.5193 36.5061 18.1789C35.8199 17.8214 35.3095 17.3533 34.9748 16.7746C34.6401 16.1959 34.4728 15.5576 34.4728 14.8597C34.4728 13.6852 34.9246 12.732 35.8283 12.0001C36.732 11.2682 38.0875 10.9022 39.8949 10.9022H43.0578V10.5958C43.0578 9.72774 42.8152 9.08943 42.3299 8.68092C41.8445 8.27241 41.2421 8.06815 40.5225 8.06815C39.8698 8.06815 39.3008 8.22985 38.8155 8.55326C38.3302 8.85964 38.029 9.31922 37.9118 9.93199H34.774C34.8577 9.01284 35.1589 8.21283 35.6777 7.53197C36.2132 6.85112 36.8993 6.33196 37.7361 5.97451C38.5728 5.60004 39.51 5.41281 40.5476 5.41281C42.3215 5.41281 43.7189 5.86388 44.7397 6.76601C45.7605 7.66815 46.2709 8.94475 46.2709 10.5958V18.3831H43.5348L43.2335 16.3406C42.8654 17.0214 42.3466 17.5831 41.6772 18.0257C41.0245 18.4682 40.1794 18.6895 39.1418 18.6895ZM39.8698 16.1363C40.7902 16.1363 41.5015 15.8299 42.0035 15.2171C42.5223 14.6044 42.8486 13.8469 42.9825 12.9448H40.2463C39.3929 12.9448 38.782 13.1065 38.4139 13.4299C38.0457 13.7363 37.8616 14.1193 37.8616 14.5788C37.8616 15.0725 38.0457 15.4554 38.4139 15.7278C38.782 16.0001 39.2673 16.1363 39.8698 16.1363Z" fill="#353C49"/>
<path d="M48.082 18.3831V5.71919H50.9186L51.1697 7.86389C51.5546 7.11495 52.1068 6.5192 52.8264 6.07664C53.5628 5.63409 54.4246 5.41281 55.412 5.41281C56.9516 5.41281 58.1481 5.90643 59.0016 6.89367C59.8551 7.88091 60.2819 9.32773 60.2819 11.2341V18.3831H57.0687V11.5405C57.0687 10.4511 56.8512 9.6171 56.4161 9.03837C55.981 8.45964 55.3032 8.17028 54.3828 8.17028C53.4791 8.17028 52.7344 8.49368 52.1487 9.1405C51.5797 9.78731 51.2952 10.6894 51.2952 11.8469V18.3831H48.082Z" fill="#353C49"/>
<path d="M68.1991 18.6895C66.9273 18.6895 65.806 18.4087 64.8354 17.8469C63.8648 17.2852 63.095 16.5023 62.526 15.498C61.9737 14.4937 61.6976 13.3448 61.6976 12.0512C61.6976 10.7575 61.9737 9.60859 62.526 8.60432C63.095 7.60006 63.8648 6.81707 64.8354 6.25537C65.806 5.69366 66.9273 5.41281 68.1991 5.41281C69.789 5.41281 71.1278 5.83834 72.2155 6.68941C73.3033 7.52346 73.9978 8.68092 74.299 10.1618H70.9102C70.7429 9.54901 70.4082 9.07241 69.9061 8.73198C69.4208 8.37453 68.8434 8.19581 68.174 8.19581C67.2871 8.19581 66.534 8.53624 65.9148 9.21709C65.2956 9.89795 64.986 10.8426 64.986 12.0512C64.986 13.2597 65.2956 14.2044 65.9148 14.8852C66.534 15.5661 67.2871 15.9065 68.174 15.9065C68.8434 15.9065 69.4208 15.7363 69.9061 15.3959C70.4082 15.0554 70.7429 14.5703 70.9102 13.9405H74.299C73.9978 15.3703 73.3033 16.5193 72.2155 17.3874C71.1278 18.2555 69.789 18.6895 68.1991 18.6895Z" fill="#353C49"/>
<path d="M81.9455 18.6895C80.6904 18.6895 79.5775 18.4172 78.6069 17.8725C77.6362 17.3278 76.8748 16.5618 76.3225 15.5746C75.7703 14.5873 75.4942 13.4469 75.4942 12.1533C75.4942 10.8426 75.7619 9.67667 76.2974 8.65539C76.8497 7.6341 77.6028 6.84261 78.5567 6.2809C79.5273 5.70217 80.6653 5.41281 81.9706 5.41281C83.1923 5.41281 84.2717 5.68515 85.2088 6.22984C86.146 6.77452 86.8739 7.52346 87.3927 8.47666C87.9283 9.41284 88.196 10.4597 88.196 11.6171C88.196 11.8043 88.1876 12.0001 88.1709 12.2044C88.1709 12.4086 88.1625 12.6214 88.1458 12.8427H78.6822C78.7491 13.8299 79.0838 14.6044 79.6863 15.1661C80.3055 15.7278 81.0502 16.0086 81.9204 16.0086C82.5731 16.0086 83.117 15.864 83.5521 15.5746C84.0039 15.2682 84.3386 14.8767 84.5562 14.4001H87.8195C87.5852 15.2001 87.1919 15.932 86.6397 16.5959C86.1041 17.2427 85.4347 17.7533 84.6315 18.1278C83.8449 18.5023 82.9496 18.6895 81.9455 18.6895ZM81.9706 8.06815C81.1841 8.06815 80.4895 8.29794 79.8871 8.75752C79.2846 9.20007 78.8997 9.88093 78.7324 10.8001H84.9327C84.8825 9.96603 84.5813 9.3022 84.029 8.80858C83.4767 8.31496 82.7906 8.06815 81.9706 8.06815Z" fill="#353C49"/>
<path d="M28.3516 18.3831L31.0503 0H34.2634L31.5647 18.3831H28.3516Z" fill="#353C49"/>
</svg>
