<svg width="210" height="114" viewBox="0 0 210 114" fill="none" xmlns="http://www.w3.org/2000/svg">
<path fill-rule="evenodd" clip-rule="evenodd" d="M119.667 103.052C111.586 97.13 98.4137 97.13 90.3329 103.052C80.9394 109.936 69.3603 114 56.8349 114C25.4459 114 0 88.4802 0 57C0 25.5198 25.4459 0 56.8349 0C69.3603 0 80.9394 4.06353 90.3329 10.9478C98.4137 16.87 111.586 16.87 119.667 10.9478C129.061 4.06353 140.64 0 153.165 0C184.554 0 210 25.5198 210 57C210 88.4802 184.554 114 153.165 114C140.64 114 129.061 109.936 119.667 103.052Z" fill="#5B7CFF" fill-opacity="0.15"/>
<path d="M152.185 55.548V38.97H149.935V55.548H152.185ZM148.783 39.24H146.569V44.568H144.499V46.494H146.569V54.81H148.783V39.24ZM143.257 43.11V40.41H140.971V43.2C140.971 46.026 140.089 48.996 137.659 50.472L139.081 52.254C140.593 51.336 141.547 49.806 142.123 47.934C142.645 49.608 143.491 51.012 144.931 51.876L146.227 50.04C143.977 48.546 143.257 45.792 143.257 43.11ZM155.752 46.476H167.236V39.78H155.752V46.476ZM158.092 41.652H164.914V44.604H158.092V41.652ZM162.664 50.13H169.036V48.24H154.024V50.13H160.288V55.548H162.664V50.13ZM143.85 77.584V60.952H141.474V66.154H138.288V68.062H141.474V77.584H143.85ZM136.164 64.642V62.248H133.77V64.642C133.77 67.792 132.528 71.014 129.702 72.31L131.178 74.218C133.05 73.282 134.274 71.608 134.994 69.43C135.696 71.464 136.884 73.048 138.702 73.93L140.106 72.04C137.37 70.834 136.164 67.756 136.164 64.642ZM159.729 77.584V60.952H157.353V77.584H159.729ZM149.163 66.298V62.284H146.805V73.714H154.977V62.284H152.619V66.298H149.163ZM152.619 71.824H149.163V68.152H152.619V71.824ZM175.535 70.762L176.543 68.782C172.799 68.152 170.747 65.524 170.747 63.13V61.942H168.209V63.13C168.209 65.488 166.157 68.152 162.413 68.782L163.421 70.762C166.319 70.204 168.389 68.584 169.469 66.478C170.549 68.584 172.637 70.186 175.535 70.762ZM177.065 75.532V73.606H162.053V75.532H177.065Z" fill="#5B7CFF"/>
<path d="M101.554 54.2925L104.104 58.4597L101.383 63H103.747L104.555 61.414C104.804 60.8698 105.037 60.3722 105.286 59.8746H105.364C105.659 60.3722 105.908 60.9009 106.203 61.414L107.167 63H109.624L106.903 58.724L109.453 54.2925H107.09L106.359 55.8474C106.157 56.3294 105.924 56.827 105.721 57.309H105.659C105.395 56.827 105.146 56.345 104.882 55.8474L104.011 54.2925H101.554Z" fill="#5B7CFF"/>
<path d="M46.508 55.584V38.952H44.132V55.584H46.508ZM35.942 44.298V40.284H33.584V51.714H41.756V40.284H39.398V44.298H35.942ZM39.398 49.824H35.942V46.152H39.398V49.824ZM64.0786 44.784V42.822H61.8826V38.988H59.5066V48.78H61.8826V44.784H64.0786ZM57.3646 48.15L58.6066 46.314C55.9966 45.486 54.8806 43.56 54.8806 41.562V39.87H52.4686V41.364C52.4686 43.614 51.3706 45.828 48.5806 46.746L49.8226 48.618C51.7126 47.97 52.9906 46.71 53.7106 45.054C54.4126 46.494 55.6186 47.574 57.3646 48.15ZM56.4646 49.158C52.9906 49.158 50.8486 50.346 50.8486 52.344C50.8486 54.36 52.9906 55.548 56.4646 55.548C59.9206 55.548 62.0626 54.36 62.0626 52.344C62.0626 50.346 59.9206 49.158 56.4646 49.158ZM56.4646 53.712C54.2866 53.712 53.2066 53.262 53.2066 52.344C53.2066 51.444 54.2866 50.994 56.4646 50.994C58.5706 50.994 59.7046 51.426 59.7046 52.344C59.7046 53.28 58.5706 53.712 56.4646 53.712ZM65.6112 45.324L66.4752 47.178C69.3732 46.764 71.3892 45.576 72.3972 43.848C73.4052 45.576 75.4212 46.764 78.3192 47.178L79.1652 45.324C75.7812 44.892 74.0532 43.308 73.8192 41.706H78.5172V39.816H66.2232V41.706H70.9932C70.7592 43.308 69.0132 44.892 65.6112 45.324ZM73.5312 50.022H79.8852V48.132H64.9092V50.022H71.1552V55.584H73.5312V50.022ZM45.752 69.322H48.164V67.342H45.752V60.97H43.376V77.548H45.752V69.322ZM38.876 64.66V62.248H36.482V64.66C36.482 67.738 35.222 70.924 32.432 72.22L33.854 74.146C35.726 73.228 36.968 71.482 37.688 69.376C38.39 71.41 39.542 72.958 41.27 73.84L42.71 71.968C40.046 70.672 38.876 67.648 38.876 64.66ZM50.5606 68.476H62.0446V61.78H50.5606V68.476ZM52.9006 63.652H59.7226V66.604H52.9006V63.652ZM57.4726 72.13H63.8446V70.24H48.8326V72.13H55.0966V77.548H57.4726V72.13ZM76.2672 69.34H78.6432V60.988H76.2672V69.34ZM73.9272 69.142L75.0612 67.288C72.3792 66.514 71.1912 64.552 71.1912 62.608V61.366H68.7792V62.608C68.7792 64.624 67.5552 66.694 64.8192 67.558L65.9712 69.412C67.9152 68.818 69.2472 67.576 70.0212 65.992C70.7592 67.432 72.0372 68.584 73.9272 69.142ZM79.0752 77.422V75.586H69.9852V74.56H78.6612V70.078H67.6092V71.896H76.3032V72.868H67.6272V77.422H79.0752Z" fill="#5B7CFF"/>
</svg>
