<svg width="301" height="164" viewBox="0 0 301 164" fill="none" xmlns="http://www.w3.org/2000/svg">
<path fill-rule="evenodd" clip-rule="evenodd" d="M171.28 147.942C159.845 139.519 141.203 139.519 129.768 147.942C116.269 157.886 99.5885 163.763 81.5356 163.763C36.5759 163.763 0.128906 127.316 0.128906 82.3559C0.128906 37.3962 36.5759 0.949219 81.5356 0.949219C99.5885 0.949219 116.269 6.82556 129.768 16.7698C141.203 25.193 159.845 25.193 171.28 16.7698C184.779 6.82556 201.459 0.949219 219.512 0.949219C264.472 0.949219 300.919 37.3962 300.919 82.3559C300.919 127.316 264.472 163.763 219.512 163.763C201.459 163.763 184.779 157.886 171.28 147.942Z" fill="#5B7CFF" fill-opacity="0.15"/>
<path d="M218.002 78.1928V57.9308H215.252V78.1928H218.002ZM213.844 58.2608H211.138V64.7728H208.608V67.1268H211.138V77.2908H213.844V58.2608ZM207.09 62.9908V59.6908H204.296V63.1008C204.296 66.5548 203.218 70.1848 200.248 71.9888L201.986 74.1668C203.834 73.0448 205 71.1748 205.704 68.8868C206.342 70.9328 207.376 72.6488 209.136 73.7048L210.72 71.4608C207.97 69.6348 207.09 66.2688 207.09 62.9908ZM222.168 67.1048H236.204V58.9208H222.168V67.1048ZM225.028 61.2088H233.366V64.8168H225.028V61.2088ZM230.616 71.5708H238.404V69.2608H220.056V71.5708H227.712V78.1928H230.616V71.5708ZM207.912 106.237V85.9088H205.008V92.2668H201.114V94.5988H205.008V106.237H207.912ZM198.518 90.4188V87.4928H195.592V90.4188C195.592 94.2688 194.074 98.2068 190.62 99.7908L192.424 102.123C194.712 100.979 196.208 98.9328 197.088 96.2708C197.946 98.7568 199.398 100.693 201.62 101.771L203.336 99.4608C199.992 97.9868 198.518 94.2248 198.518 90.4188ZM227.125 106.237V85.9088H224.221V106.237H227.125ZM214.211 92.4428V87.5368H211.329V101.507H221.317V87.5368H218.435V92.4428H214.211ZM218.435 99.1968H214.211V94.7088H218.435V99.1968ZM246.251 97.8988L247.483 95.4788C242.907 94.7088 240.399 91.4968 240.399 88.5708V87.1188H237.297V88.5708C237.297 91.4528 234.789 94.7088 230.213 95.4788L231.445 97.8988C234.987 97.2168 237.517 95.2368 238.837 92.6628C240.157 95.2368 242.709 97.1948 246.251 97.8988ZM248.121 103.729V101.375H229.773V103.729H248.121Z" fill="#5B7CFF"/>
<path d="M145.823 78.0982L149.443 84.0146L145.58 90.4609H148.935L150.083 88.2091C150.437 87.4365 150.768 86.73 151.121 86.0236H151.231C151.651 86.73 152.004 87.4806 152.423 88.2091L153.792 90.4609H157.28L153.417 84.3899L157.037 78.0982H153.682L152.644 80.3058C152.357 80.9902 152.026 81.6966 151.739 82.381H151.651C151.275 81.6966 150.922 81.0122 150.547 80.3058L149.311 78.0982H145.823Z" fill="#5B7CFF"/>
<path d="M69.3726 78.2368V57.9088H66.4686V78.2368H69.3726ZM56.4586 64.4428V59.5368H53.5766V73.5068H63.5646V59.5368H60.6826V64.4428H56.4586ZM60.6826 71.1968H56.4586V66.7088H60.6826V71.1968ZM90.654 65.0368V62.6388H87.97V57.9528H85.066V69.9208H87.97V65.0368H90.654ZM82.448 69.1508L83.966 66.9068C80.776 65.8948 79.412 63.5408 79.412 61.0988V59.0308H76.464V60.8568C76.464 63.6068 75.122 66.3128 71.712 67.4348L73.23 69.7228C75.54 68.9308 77.102 67.3908 77.982 65.3668C78.84 67.1268 80.314 68.4468 82.448 69.1508ZM81.348 70.3828C77.102 70.3828 74.484 71.8348 74.484 74.2768C74.484 76.7408 77.102 78.1928 81.348 78.1928C85.572 78.1928 88.19 76.7408 88.19 74.2768C88.19 71.8348 85.572 70.3828 81.348 70.3828ZM81.348 75.9488C78.686 75.9488 77.366 75.3988 77.366 74.2768C77.366 73.1768 78.686 72.6268 81.348 72.6268C83.922 72.6268 85.308 73.1548 85.308 74.2768C85.308 75.4208 83.922 75.9488 81.348 75.9488ZM92.3335 65.6968L93.3895 67.9628C96.9315 67.4568 99.3955 66.0048 100.627 63.8928C101.859 66.0048 104.323 67.4568 107.865 67.9628L108.899 65.6968C104.763 65.1688 102.651 63.2328 102.365 61.2748H108.107V58.9648H93.0815V61.2748H98.9115C98.6255 63.2328 96.4915 65.1688 92.3335 65.6968ZM102.013 71.4388H109.779V69.1288H91.4755V71.4388H99.1095V78.2368H102.013V71.4388ZM68.4486 96.1388H71.3966V93.7188H68.4486V85.9308H65.5446V106.193H68.4486V96.1388ZM60.0446 90.4408V87.4928H57.1186V90.4408C57.1186 94.2028 55.5786 98.0968 52.1686 99.6808L53.9066 102.035C56.1946 100.913 57.7126 98.7788 58.5926 96.2048C59.4506 98.6908 60.8586 100.583 62.9706 101.661L64.7306 99.3728C61.4746 97.7888 60.0446 94.0928 60.0446 90.4408ZM74.132 95.1048H88.168V86.9208H74.132V95.1048ZM76.992 89.2088H85.33V92.8168H76.992V89.2088ZM82.58 99.5708H90.368V97.2608H72.02V99.5708H79.676V106.193H82.58V99.5708ZM105.357 96.1608H108.261V85.9528H105.357V96.1608ZM102.497 95.9188L103.883 93.6528C100.605 92.7068 99.1535 90.3088 99.1535 87.9328V86.4148H96.2055V87.9328C96.2055 90.3968 94.7095 92.9268 91.3655 93.9828L92.7735 96.2488C95.1495 95.5228 96.7775 94.0048 97.7235 92.0688C98.6255 93.8288 100.187 95.2368 102.497 95.9188ZM108.789 106.039V103.795H97.6795V102.541H108.283V97.0628H94.7755V99.2848H105.401V100.473H94.7975V106.039H108.789Z" fill="#5B7CFF"/>
</svg>
