<svg width="246" height="94" viewBox="0 0 246 94" fill="none" xmlns="http://www.w3.org/2000/svg">
<path fill-rule="evenodd" clip-rule="evenodd" d="M46 94C56.0237 94 65.2985 90.7243 72.855 85.1633C79.5191 80.2592 90.4809 80.2592 97.145 85.1633C104.702 90.7243 113.976 94 124 94C133.897 94 143.064 90.8066 150.567 85.3733C156.964 80.7419 167.036 80.7419 173.433 85.3733C180.936 90.8066 190.103 94 200 94C225.405 94 246 72.9574 246 47C246 21.0426 225.405 0 200 0C190.103 0 180.936 3.1934 173.433 8.62673C167.036 13.2581 156.964 13.2581 150.567 8.62672C143.064 3.1934 133.897 0 124 0C113.976 0 104.702 3.27574 97.145 8.83665C90.4809 13.7408 79.5191 13.7408 72.855 8.83665C65.2985 3.27575 56.0237 0 46 0C20.5949 0 0 21.0426 0 47C0 72.9574 20.5949 94 46 94Z" fill="#D4F0FE"/>
<path d="M121.033 45.204V32.31H119.283V45.204H121.033ZM118.387 32.52H116.665V36.664H115.055V38.162H116.665V44.63H118.387V32.52ZM114.089 35.53V33.43H112.311V35.6C112.311 37.798 111.625 40.108 109.735 41.256L110.841 42.642C112.017 41.928 112.759 40.738 113.207 39.282C113.613 40.584 114.271 41.676 115.391 42.348L116.399 40.92C114.649 39.758 114.089 37.616 114.089 35.53ZM123.696 38.148H132.628V32.94H123.696V38.148ZM125.516 34.396H130.822V36.692H125.516V34.396ZM129.072 40.99H134.028V39.52H122.352V40.99H127.224V45.204H129.072V40.99ZM114.606 63.232V50.296H112.758V54.342H110.28V55.826H112.758V63.232H114.606ZM108.628 53.166V51.304H106.766V53.166C106.766 55.616 105.8 58.122 103.602 59.13L104.75 60.614C106.206 59.886 107.158 58.584 107.718 56.89C108.264 58.472 109.188 59.704 110.602 60.39L111.694 58.92C109.566 57.982 108.628 55.588 108.628 53.166ZM126.845 63.232V50.296H124.997V63.232H126.845ZM118.627 54.454V51.332H116.793V60.222H123.149V51.332H121.315V54.454H118.627ZM121.315 58.752H118.627V55.896H121.315V58.752ZM139.027 57.926L139.811 56.386C136.899 55.896 135.303 53.852 135.303 51.99V51.066H133.329V51.99C133.329 53.824 131.733 55.896 128.821 56.386L129.605 57.926C131.859 57.492 133.469 56.232 134.309 54.594C135.149 56.232 136.773 57.478 139.027 57.926ZM140.217 61.636V60.138H128.541V61.636H140.217Z" fill="#2DBCFF"/>
<path d="M190.817 38.148H199.749V32.94H190.817V38.148ZM192.637 34.396H197.943V36.692H192.637V34.396ZM196.193 40.99H201.149V39.52H189.473V40.99H194.345V45.204H196.193V40.99ZM213.528 43.79V42.278H210.7V40.318H212.506V38.834H205.03V37.42H212.212V33.136H203.182V34.606H210.392V35.978H203.196V40.318H204.806V42.278H201.838V43.79H213.528ZM208.88 42.278H206.626V40.318H208.88V42.278ZM187.874 57.38V50.31H186.026V53.25H183.73V50.968H181.924V52.592H179.474V50.968H177.64V57.002H183.73V54.734H186.026V57.38H187.874ZM179.474 54.006H181.924V55.532H179.474V54.006ZM187.874 57.926H186.04V59.074H181.154V57.926H179.334V63.036H187.874V57.926ZM181.154 60.488H186.04V61.58H181.154V60.488ZM198.321 59.578H200.183V50.324H198.321V59.578ZM196.669 54.412C196.669 52.508 195.143 51.136 193.169 51.136C191.195 51.136 189.655 52.508 189.655 54.412C189.655 56.288 191.195 57.674 193.169 57.674C195.143 57.674 196.669 56.288 196.669 54.412ZM191.461 54.412C191.461 53.348 192.217 52.732 193.169 52.732C194.135 52.732 194.863 53.348 194.863 54.412C194.863 55.476 194.135 56.078 193.169 56.078C192.217 56.078 191.461 55.476 191.461 54.412ZM200.505 62.98V61.51H193.449V58.668H191.601V62.98H200.505ZM208.432 53.67H210.784V56.862H212.632V50.31H210.784V52.2H208.432V53.67ZM208.614 56.708L209.552 55.294C207.536 54.692 206.654 53.166 206.654 51.654V50.73H204.792V51.654C204.792 53.292 203.896 54.874 201.754 55.518L202.706 56.96C204.176 56.498 205.184 55.574 205.758 54.342C206.304 55.42 207.256 56.274 208.614 56.708ZM212.996 63.064V61.622H205.968V60.866H212.632V57.408H204.134V58.822H210.812V59.536H204.148V63.064H212.996ZM224.941 57.506V50.31H223.079V57.506H224.941ZM222.225 56.918L222.015 55.448C220.349 55.742 218.837 55.798 216.709 55.798V54.734H220.811V50.898H214.875V52.368H218.991V53.362H214.889V57.282H216.023C218.585 57.282 220.307 57.254 222.225 56.918ZM224.941 58.038H223.107V59.13H218.193V58.038H216.359V63.05H224.941V58.038ZM218.193 60.544H223.107V61.58H218.193V60.544Z" fill="#2DBCFF"/>
<path d="M82.8718 44.8143L84.9556 48.2195L82.7321 51.9297H84.6634L85.3241 50.6337C85.5274 50.1889 85.718 49.7824 85.9213 49.3758H85.9848C86.2262 49.7824 86.4295 50.2144 86.6709 50.6337L87.4587 51.9297H89.4663L87.2427 48.4355L89.3265 44.8143H87.3952L86.798 46.0849C86.6328 46.4788 86.4422 46.8854 86.2771 47.2792H86.2262C86.0102 46.8854 85.8069 46.4915 85.5909 46.0849L84.8794 44.8143H82.8718Z" fill="#2DBCFF"/>
<path d="M158.497 44.8143L160.581 48.2195L158.357 51.9297H160.288L160.949 50.6337C161.152 50.1889 161.343 49.7824 161.546 49.3758H161.61C161.851 49.7824 162.055 50.2144 162.296 50.6337L163.084 51.9297H165.091L162.868 48.4355L164.952 44.8143H163.02L162.423 46.0849C162.258 46.4788 162.067 46.8854 161.902 47.2792H161.851C161.635 46.8854 161.432 46.4915 161.216 46.0849L160.504 44.8143H158.497Z" fill="#2DBCFF"/>
<path d="M37.284 45.232V32.296H35.436V45.232H37.284ZM29.066 36.454V33.332H27.232V42.222H33.588V33.332H31.754V36.454H29.066ZM31.754 40.752H29.066V37.896H31.754V40.752ZM50.8389 36.832V35.306H49.1309V32.324H47.2829V39.94H49.1309V36.832H50.8389ZM45.6169 39.45L46.5829 38.022C44.5529 37.378 43.6849 35.88 43.6849 34.326V33.01H41.8089V34.172C41.8089 35.922 40.9549 37.644 38.7849 38.358L39.7509 39.814C41.2209 39.31 42.2149 38.33 42.7749 37.042C43.3209 38.162 44.2589 39.002 45.6169 39.45ZM44.9169 40.234C42.2149 40.234 40.5489 41.158 40.5489 42.712C40.5489 44.28 42.2149 45.204 44.9169 45.204C47.6049 45.204 49.2709 44.28 49.2709 42.712C49.2709 41.158 47.6049 40.234 44.9169 40.234ZM44.9169 43.776C43.2229 43.776 42.3829 43.426 42.3829 42.712C42.3829 42.012 43.2229 41.662 44.9169 41.662C46.5549 41.662 47.4369 41.998 47.4369 42.712C47.4369 43.44 46.5549 43.776 44.9169 43.776ZM51.9198 37.252L52.5918 38.694C54.8458 38.372 56.4138 37.448 57.1978 36.104C57.9818 37.448 59.5498 38.372 61.8038 38.694L62.4618 37.252C59.8298 36.916 58.4858 35.684 58.3038 34.438H61.9578V32.968H52.3958V34.438H56.1058C55.9238 35.684 54.5658 36.916 51.9198 37.252ZM58.0798 40.906H63.0218V39.436H51.3738V40.906H56.2318V45.232H58.0798V40.906ZM36.696 56.806H38.572V55.266H36.696V50.31H34.848V63.204H36.696V56.806ZM31.348 53.18V51.304H29.486V53.18C29.486 55.574 28.506 58.052 26.336 59.06L27.442 60.558C28.898 59.844 29.864 58.486 30.424 56.848C30.97 58.43 31.866 59.634 33.21 60.32L34.33 58.864C32.258 57.856 31.348 55.504 31.348 53.18ZM40.3249 56.148H49.2569V50.94H40.3249V56.148ZM42.1449 52.396H47.4509V54.692H42.1449V52.396ZM45.7009 58.99H50.6569V57.52H38.9809V58.99H43.8529V63.204H45.7009V58.99ZM60.2078 56.82H62.0558V50.324H60.2078V56.82ZM58.3878 56.666L59.2698 55.224C57.1838 54.622 56.2598 53.096 56.2598 51.584V50.618H54.3838V51.584C54.3838 53.152 53.4318 54.762 51.3038 55.434L52.1998 56.876C53.7118 56.414 54.7478 55.448 55.3498 54.216C55.9238 55.336 56.9178 56.232 58.3878 56.666ZM62.3918 63.106V61.678H55.3218V60.88H62.0698V57.394H53.4738V58.808H60.2358V59.564H53.4878V63.106H62.3918Z" fill="#2DBCFF"/>
</svg>
