<svg width="64" height="12" viewBox="0 0 64 12" fill="none" xmlns="http://www.w3.org/2000/svg">
<g clip-path="url(#clip0_3346_2700)">
<path d="M5.27422 0.613525L3.2881 3.19989L0 4.1351L2.06037 6.67126L2.01264 9.83883L5.27422 8.81908L8.5358 9.83883L8.48808 6.66862L10.5537 4.13245L7.26299 3.19724L5.27422 0.613525ZM17.9806 0.634659L16.0025 3.21309L12.7223 4.14566L14.7774 6.67126L14.7297 9.82826L17.9806 8.81115L21.2316 9.82826L21.1839 6.67126L23.2389 4.14566L19.9588 3.21309L17.9806 0.634659ZM31.2347 0.613525L29.2486 3.19989L25.9605 4.1351L28.0209 6.67126L27.9731 9.83883L31.2347 8.81908L34.4963 9.83883L34.4486 6.67126L36.5142 4.1351L33.2235 3.19989L31.2347 0.613525ZM44.4808 0.634659L42.5027 3.21309L39.2225 4.14566L41.2776 6.67126L41.2299 9.82826L44.4808 8.81115L47.7318 9.82826L47.6841 6.67126L49.7391 4.14566L46.459 3.21309L44.4808 0.634659ZM57.1289 0.634659L55.1507 3.21309L51.8706 4.14566L53.9257 6.67126L53.8779 9.82826L57.1289 8.81115L60.3799 9.82826L60.3322 6.67126L62.3872 4.14566L59.1071 3.21309L57.1289 0.634659Z" fill="#FF4751"/>
</g>
<defs>
<clipPath id="clip0_3346_2700">
<rect width="63.9092" height="10.8782" fill="white" transform="translate(0.0625 0.476074)"/>
</clipPath>
</defs>
</svg>
