<svg width="94" height="16" viewBox="0 0 94 16" fill="none" xmlns="http://www.w3.org/2000/svg">
<g clip-path="url(#clip0_3346_277)">
<path d="M7.66377 0.202148L4.74251 4.00626L-0.09375 5.3818L2.93671 9.11209L2.86651 13.7711L7.66377 12.2712L12.461 13.7711L12.3908 9.1082L15.4291 5.37792L10.5889 4.00238L7.66377 0.202148ZM26.3528 0.233232L23.4433 4.02569L18.6187 5.39735L21.6414 9.11209L21.5712 13.7555L26.3528 12.2595L31.1345 13.7555L31.0643 9.11209L34.087 5.39735L29.2624 4.02569L26.3528 0.233232ZM45.8474 0.202148L42.9262 4.00626L38.0899 5.3818L41.1204 9.11209L41.0502 13.7711L45.8474 12.2712L50.6447 13.7711L50.5745 9.11209L53.6127 5.3818L48.7726 4.00626L45.8474 0.202148ZM65.3303 0.233232L62.4207 4.02569L57.5962 5.39735L60.6189 9.11209L60.5486 13.7555L65.3303 12.2595L70.112 13.7555L70.0418 9.11209L73.0644 5.39735L68.2399 4.02569L65.3303 0.233232ZM83.9336 0.233232L81.024 4.02569L76.1994 5.39735L79.2221 9.11209L79.1519 13.7555L83.9336 12.2595L88.7152 13.7555L88.645 9.11209L91.6677 5.39735L86.8431 4.02569L83.9336 0.233232Z" fill="#FF4751"/>
</g>
<defs>
<clipPath id="clip0_3346_277">
<rect width="94" height="16" fill="white"/>
</clipPath>
</defs>
</svg>
